<?xml version="1.0" encoding="UTF-8"?>
<svg version="1.1" viewBox="0 0 1188 1176" width="1280" height="1280" xmlns="http://www.w3.org/2000/svg">
<path transform="translate(126,83)" d="m0 0h219l10 3 9 6 6 9 2 6v22l-3 9-2 3 1 1 36 2 15 2 13 5 10 9 3 9v15l-1 14-3 6-5 5-8 5-15 9-7 5h-2l-1 22-1 199 9 3 5 4 4 11-1 5-5 5-7 8-2 4h2l2-4 7-7 7-8 2-3h2l2-4 8-9 11-14 12-15 8-11 10-13 10-14 7-10 4-6 4-3 7 1 32 16 15 9 16 8 25 14 25 13 10 5 11 7 6 5 3 9v10l-2 1-1 7 3 10 6 6h5l4-2-1-6-4-18v-54l-13 7-5 1-3-3v-7l4-6 12-11 6-3h6l5 4 3 3 9 6 7 6 4 8 5 5 2 5-9-1 4 8 2 6 1 19 4 5h3l4-5 8-4 11-4 12-7 11-4 10-6 17-9 16-9 2-3 1-41 1-80v-89l-1-29-2-7-9-8-15-9-10-9-4-7-2-9v-10l3-11 6-9 6-5 7-3 7-1h219l9 3 9 5 9 9 1 2 1 9v24l-4 7 43 3 16 4 6 4 3 5v47l-5 5-22 12-4 3-1 17v608l1 46 17 10 13 8 6 11 17-2h30l-1 6-5 10v9h33l6 2 1 5-7 6-4 6-2 9-2 147-1 21-8-1-6-5-7-13-10-9-5-4-6-9-7-10-10-19-16-26-10-14-4-6v21l1 59 1 17 2 6 2 1v2l4 2 8 7v1h-23l-35-1v-1l13-1 6-9 5-6 2-4-14-3h-9l-4 22-2 3h-32l-56-1v-4l6-3 3-9 1-8-18-2h-22v-3l11-9 3-6v-49l-2-28-2 5-1-2h-3l-1 4-3 3-7 21-9 52-5 18-4 11-3 9-4 1-7-4-3-5-3-9v-3l-4-1-6-2 2-7 2-5 3 1v-2h-2l1-5-1-2-3 6-1 7-3 7h-3l-7-14-5-18-7-23-7-30-3-9-4-2-1-2-2-1 2-4 1 1-2-10-7-27-3-3v-2l-3 1-1 2v9l4 15 2 5 3 23 2 3v12l3 1h-2v2h2l1 12 4 22 7 34 2 11 9 6 8 3-2 4-7 5h-37l-19-1v-4l6-7 4-10-1-4-12-3-9-1h-16l-11 10-1 6 7 5-3 1 2 4-3 2h-31l-8-1 3-1v-2l2-1h-14l-3-1v-5h7l1-2 5 4h6l7-4 2-5-1-5-6-3h-11l-11 3h-21l-17-4-9-1h-20l-3 2 2-5 10-5 5-2v-55l-3 1-3-3v-4-10l5-2v-7h-13l-8 1 2 6 9 1 1 1v17l-3 1h-7v35l1 33-3 6v3l-2 1 3 2-4 3-11-1-7-3h-10l-1-2 4-1h12l5-1v-4l-7-2-15-2-3-1-14-1v5l-4 1h-5-3l-2-4-15-1h-48l-6-1h-17l-5 1-1 3h-20l-10-1-1-2-14-2h-12l-6 1-2 5-4 18-1 1h-5l-8-16-3-10-2-10-3-3h-4l-1 2-1 9-12 1-1-2-2-18-2-11h-4l-1 28 4 2-2 2 1 6h-18l-5-3-5-2-12-1-10 2-8 7-9 9-11 7-11 4-7 1h-9l-15-5-11-7-10-10-7-9-11-10-8-7-9-7-1 6v33l4 4 9 6-2 4-7 3h-24l-28-3-3-3 13-7 3-6 4-5 4-2-19-3h-31l1-3 10-7 3-2v-53l-16 3-1 1v63l-3 12h2l1 3-35-1 1-5 4-5h7l7 1-23-7-16-2-18-1 1-4 8-6h2v-169l-9-8-3-3v-1l18-1h25l16 1-4 4-9 6-4 3v6l2 2 39 2v4l6-1 1 7-2 2-8 2-5 6-1 29-1 12 18 2v-74l-5-5-6-5v-4l4-1 35-2 10-1-20-2-15-4-8-4-8-9-6-5-2-6-1-7v-14l2-8 4-5 15-10 12-7 7-6 3-5 1-7 1-42 1-215v-58l-1-331-3-9-9-8-18-11-11-9-3-8-1-11 1-11 4-8 9-9 10-5zm374 321-7 7-11 14-11 16-8 11 1 2h3l9-11 13-16 10-16 1-3 2 2 2-2zm1 10m6 3-5 11-12 21-13 18-20 25-13 18-11 14-15 20-9 13-6 12-1 3v314l3 5 6 5 5 5 9 6 13 7 9 6 8 3h94v22l8 2 1 9h2l1-5 3-1 1 8h2l-1 2v8h2l2-18-1-10-5-10-8-3h-2l-1-4 65 1-4 4-11 8-1 2v8l5 2 28 2 5 1-1 5-3 1-4 4-1 9-1 29-2 3-1 7 12 2h13v-73l-3-5-12-6-2-2 2-1h57v2l-7 6-1 2v12l1 1 25 1 14 1 1 6-5 2-4 5-3 10v78h2l8-17 7-40 7-31 6-16 5-16 1-6 13-3 15-4 13-2v-1l-12-3-9-7-8-12-2-7v-18l3-9 5-7 10-6 13-8 8-8 2-6 1-35v-112l-1-32-2-12-3 1v-2l-9 2-15 2h-72v2l-12-3-13-11-8-8-12-16-10-13-13-16-8-11-11-14-10-13-12-16-8-10-10-13-13-16-7-10-12-14-13-16-9-12-7-5-3-1-1-2zm62 33 2 5 14 20 13 17 10 13 13 17 10 13 7 9 15 20 11 14 11 12 2-1-8-12-12-16h-2l-2-5-13-18-16-21-30-40h-2l-2-4-5-8-8-7h-2l-1-4zm-107 4m3 0m-4 1m3 0 1 2zm-1 2m-1 1m-4 1-2 5h3l1-3zm3 0m-1 1m-5 4m-1 1m346 0-7 8-14 22-5 6 1 3 3 2h4l2-9v-5l5 1 2 2v10l-3 9h-4l-2 1-1 8-5 8-4 1-6-5-3 3v2h-2l-1-10h-3l-3 2-9-11-1-3h-2l-2-4-4-5h-2l-1-3-5-4-3-5h-2l-1-4-3-1-2-4-5-5-2-1 1 5 5 4 6 8 11 13 18 22 13 18 9 13 8 10 12 13 4 4 3-1 1-14v-25l-1-4-1-29-1-13 2-25 2-8zm-352 8m-1 1m-56 29m286 87m1 1m120 324m319 20v2l-5 1-5 4-1 6v20l8 15 11 14 5 5v-55l-4-10zm-611 3v5l1 1h10v-5l-1-1zm17 1-1 4 3 1v-2l8 2 1-4-2-1zm10 5m192 8m424 11-2 10-1 19v32l3 8 2 1 1-22v-24l-1-24zm-608 7-3 1-1 3v15l4 3 3 1 1 2v38l5 5 3 2 5-1 5-17 4-7 2-1 1-3v-16l-1-6-1-17h-2l-1-2zm-290 7-6 4-6 9-7 21-2 13-1 13v18l3 27 3 17 3 2 7-2 5-4 4-8 3-12 4-25 2-13 1-17v-13l-1-16-4-11-4-3zm651 5-3 2 1 4 5 1 4-1 1-5-2-1zm158 8v14l3 1 3 10h1l-1-10v-7l-3-3-2-5zm-725 4-2 6-3 47-3 21-1 6v21l3 7 5 5 10 2 1-30 3-17 1-5-2-24-6-24-3-6-2-9zm414 0-5 13-5 17v6l8 1 9-1 3-2v-10l-2-10-4-8-2-1-1-5zm-340 8-2 2 1 2h-2v6l-3 1v13l2 5 2 11 5 1-2-41zm-309 26 1 4 3 1h11l3-3v-2zm407 3v3l22 5 3-1v-2l-14-4zm0 10v13l8 1 3-1 3-5 3 3 2-3 3-1 2-5h-10zm236 4-5 4-5 8-4 13-4 19v5l5 3 11 2 7-36 2-18zm-233 13 3 3h5v-2zm13 3m3 0 3 3 5 1v2l-3 1v7l-3 2v2l-6-2-1 2h-2l-2-3h-5v-2h3v-2l-6-2v5h-2l-1 14 3 7 8 5 3 1h7l6-3 5-5 4-6 2-8v-11l-2-3h6l1-2-20-3zm-14 4v2l3 1-1-3zm3 3m45 0-3 7-4 16-1 10v10h10l7-6 4-8v-14l-6-11-5-4zm-46 1m254 6-4 12-6 25-1 5 4-2 8-3 10-7 1-4-2-9-3-13-3-4zm-484 8-8 10-7 7-11 9-18 9 5 3 7 6 4 1h8l10-4 7-8 3-27 1-6zm776 0-1 5v18l6 2h5l-2-7-1-4v-7l-1-5h-1l-1 8v-6l-1-2h-2zm-33 11 1 3zm-303 5v5l10 4 4-1 1-6-7-2zm303 0m-870 3m870 0-1 4h3v-4zm-869 1m540-1-5 1v2h6l1-3zm-234 2m292 14 1 2zm239 3 1 3 18 1 4-2v-1l-5-1zm-907 5m7 1v2l2-1zm520 3-2 2 5-1zm99 3m-438 1-9 2-11 4 1 3h11l1-3 8-4 1-2z" fill="#010101"/>
<path transform="translate(789,83)" d="m0 0h219l9 3 9 5 9 9 1 2 1 9v24l-4 7 43 3 16 4 6 4 3 5v47l-5 5-22 12-4 3-1 17v608l1 46 17 10 13 8 6 11 17-2h30l-1 6-5 10v9h33l6 2 1 5-7 6-4 6-2 9-2 147-1 21-8-1-6-5-7-13-10-9-5-4-6-9-7-10-10-19-16-26-10-14-4-6v21l1 59 1 17 2 6 2 1v2l4 2 8 7v1h-23l-35-1v-1l13-1 6-9 5-6 2-4-14-3h-9l-4 22-2 3h-32l-56-1v-4l6-3 3-9 1-8-18-2h-22v-3l11-9 3-6v-49l-2-28-2 5-1-2h-3l-1 4-3 3-7 21-9 52-5 18-4 11-3 9-4 1-7-4-3-5-3-9v-3l-4-1-6-2 2-7 2-5 3 1v-2h-2l1-5-1-2-3 6-1 7-3 7h-3l-7-14-5-18-7-23-7-30-3-9-4-2-1-2-2-1 2-4 1 1-2-10-7-27-3-3v-2l-3 1-1 2v9l4 15 2 5 3 23 2 3v12l3 1h-2v2h2l1 12 4 22 7 34 2 11 9 6 8 3-2 4-7 5h-37l-19-1v-4l6-7 4-10-1-4-12-3-9-1h-16l-11 10-1 6 7 5-3 1 2 4-3 2h-31l-8-1 3-1v-2l2-1h-14l-3-1v-5h7l1-2 5 4h6l7-4 2-5-1-5-6-3h-11l-11 3h-21l-17-4-9-1h-20l-3 2 2-5 10-5 5-2v-55l-3 1-3-3v-4-10l5-2v-7h-13l-8 1 2 6 9 1 1 1v17l-3 1h-7v35l1 33-3 6v3l-2 1 3 2-4 3-11-1-7-3h-10l-1-2 4-1h12l5-1v-4l-7-2-15-2-3-1-14-1v5l-4 1h-5-3l-2-4-15-1h-48l-6-1h-17l-5 1-1 3h-20l-10-1-1-2-14-2h-12l-6 1-2 5-4 18-1 1h-5l-8-16-3-10-2-10-3-3h-4l-1 2-1 9-12 1-1-2-2-18-2-11h-4l-1 28 4 2-2 2 1 6h-18l-5-3-5-2-12-1-10 2-8 7-9 9-11 7-11 4-7 1h-9l-15-5-11-7-10-10-7-9-11-10-8-7-9-7-1 6v33l4 4 9 6-2 4-7 3h-24l-28-3-3-3 13-7 3-6 4-5 4-2-19-3h-31l1-3 10-7 3-2v-53l-16 3-1 1v63l-3 12h2l1 3-35-1 1-5 4-5h7l7 1-23-7-16-2-18-1 1-4 8-6h2v-169l-9-8-3-3v-1l18-1h25l16 1-4 4-9 6-4 3v6l2 2 39 2v4l6-1 1 7-2 2-8 2-5 6-1 29-1 12 18 2v-74l-5-5-6-5v-4l4-1 35-2 10-1-20-2-15-4-8-4-2-4h2v2l4 2 6 2 28 1h196l7-1 1-3 8-7 5-8 2-8v-18l-5-12-7-6-14-8-10-8-3-6-1-11-1-40v-37l1-60v-44l1-6-3-2 1-5 24-32 14-18 10-14 12-16 7-9 8-10 5-5 10-15 11-14 9-12 13-17 12-17 13-17 14-19 6-6 4 1 1-3h2l7 11v4h3l4 6 1 3h2l3 4v2h2l4 6 8 10v2h2l7 9 12 15 12 16 13 16v2h2l8 11 7 9 8 10v2h2l10 14 8 10 10 13 2 4h2l8 11 1 3h2l1 4h2l6 8 9 11 7 7 9 1h84l36-1 2 1-1 4-5 1 1 8 1 48v102l-1 34-2 9-2 4h-2l-2 4-11 7-11 6-4 4h-2l-2 5-3 7v20l4 10 6 8 7 6 3 1 36 1h187l7-1 5-5 8-7 5-4h2v-33l-2-4-4-2-8-7-13-7-11-8-5-13-1-12-1-200v-300l1-124 2-13 4-11 8-6 20-11 4-5 3-3 2-8v-17l-3-10-6-7-13-7h-228l-10 6-7 10-2 7v17l3 8 7 9 4 4-5-2-7-7-4-7-2-9v-10l3-11 6-9 6-5 7-3zm-289 321-7 7-11 14-11 16-8 11 1 2h3l9-11 13-16 10-16 1-3 2 2 2-2zm1 10m6 3-5 11-12 21-13 18-20 25-13 18-11 14-15 20-9 13-6 12-1 3v314l3 5 6 5 5 5 9 6 13 7 9 6 8 3h94v22l8 2 1 9h2l1-5 3-1 1 8h2l-1 2v8h2l2-18-1-10-5-10-8-3h-2l-1-4 65 1-4 4-11 8-1 2v8l5 2 28 2 5 1-1 5-3 1-4 4-1 9-1 29-2 3-1 7 12 2h13v-73l-3-5-12-6-2-2 2-1h57v2l-7 6-1 2v12l1 1 25 1 14 1 1 6-5 2-4 5-3 10v78h2l8-17 7-40 7-31 6-16 5-16 1-6 13-3 15-4 13-2v-1l-12-3-9-7-8-12-2-7v-18l3-9 5-7 10-6 13-8 8-8 2-6 1-35v-112l-1-32-2-12-3 1v-2l-9 2-15 2h-72v2l-12-3-13-11-8-8-12-16-10-13-13-16-8-11-11-14-10-13-12-16-8-10-10-13-13-16-7-10-12-14-13-16-9-12-7-5-3-1-1-2zm-45 37m3 0m-4 1m3 0 1 2zm-1 2m-1 1m-4 1-2 5h3l1-3zm3 0m-1 1m-5 4m-1 1m-6 8m-1 1m351 441m319 20v2l-5 1-5 4-1 6v20l8 15 11 14 5 5v-55l-4-10zm-611 3v5l1 1h10v-5l-1-1zm17 1-1 4 3 1v-2l8 2 1-4-2-1zm10 5m192 8m424 11-2 10-1 19v32l3 8 2 1 1-22v-24l-1-24zm-608 7-3 1-1 3v15l4 3 3 1 1 2v38l5 5 3 2 5-1 5-17 4-7 2-1 1-3v-16l-1-6-1-17h-2l-1-2zm-290 7-6 4-6 9-7 21-2 13-1 13v18l3 27 3 17 3 2 7-2 5-4 4-8 3-12 4-25 2-13 1-17v-13l-1-16-4-11-4-3zm651 5-3 2 1 4 5 1 4-1 1-5-2-1zm158 8v14l3 1 3 10h1l-1-10v-7l-3-3-2-5zm-725 4-2 6-3 47-3 21-1 6v21l3 7 5 5 10 2 1-30 3-17 1-5-2-24-6-24-3-6-2-9zm414 0-5 13-5 17v6l8 1 9-1 3-2v-10l-2-10-4-8-2-1-1-5zm-340 8-2 2 1 2h-2v6l-3 1v13l2 5 2 11 5 1-2-41zm-309 26 1 4 3 1h11l3-3v-2zm407 3v3l22 5 3-1v-2l-14-4zm0 10v13l8 1 3-1 3-5 3 3 2-3 3-1 2-5h-10zm236 4-5 4-5 8-4 13-4 19v5l5 3 11 2 7-36 2-18zm-233 13 3 3h5v-2zm13 3m3 0 3 3 5 1v2l-3 1v7l-3 2v2l-6-2-1 2h-2l-2-3h-5v-2h3v-2l-6-2v5h-2l-1 14 3 7 8 5 3 1h7l6-3 5-5 4-6 2-8v-11l-2-3h6l1-2-20-3zm-14 4v2l3 1-1-3zm3 3m45 0-3 7-4 16-1 10v10h10l7-6 4-8v-14l-6-11-5-4zm-46 1m254 6-4 12-6 25-1 5 4-2 8-3 10-7 1-4-2-9-3-13-3-4zm-484 8-8 10-7 7-11 9-18 9 5 3 7 6 4 1h8l10-4 7-8 3-27 1-6zm776 0-1 5v18l6 2h5l-2-7-1-4v-7l-1-5h-1l-1 8v-6l-1-2h-2zm-33 11 1 3zm-303 5v5l10 4 4-1 1-6-7-2zm303 0m-870 3m870 0-1 4h3v-4zm-869 1m540-1-5 1v2h6l1-3zm-234 2m292 14 1 2zm239 3 1 3 18 1 4-2v-1l-5-1zm-907 5m7 1v2l2-1zm520 3-2 2 5-1zm99 3m-438 1-9 2-11 4 1 3h11l1-3 8-4 1-2z" fill="#AFB0B0"/>
<path transform="translate(789,83)" d="m0 0h219l9 3 9 5 9 9 1 2 1 9v24l-4 7 43 3 16 4 6 4 3 5v47l-5 5-22 12-4 3-1 17v608l1 46 17 10 13 8 6 11 17-2h30l-1 6-5 10v9h33l6 2 1 5-7 6-4 6-2 9-2 147-1 21-8-1-6-5-7-13-10-9-5-4-6-9-7-10-10-19-16-26-10-14-4-6v21l1 59 1 17 2 6 2 1v2l4 2 8 7v1h-23l-35-1v-1l13-1 6-9 5-6 2-4-14-3h-9l-4 22-2 3h-32l-56-1v-4l6-3 3-9 1-8-18-2h-22v-3l11-9 3-6v-49l-2-28-2 5-1-2h-3l-1 4-3 3-7 21-9 52-5 18-4 11-3 9-4 1-7-4-3-5-3-9v-3l-4-1-6-2 2-7 2-5 3 1v-2h-2l1-5-1-2-3 6-1 7-3 7h-3l-7-14-5-18-7-23-7-30-3-9-4-2-1-2-2-1 2-4 1 1-2-10-7-27-3-3v-2l-3 1-1 2v9l4 15 2 5 3 23 2 3v12l3 1h-2v2h2l1 12 4 22 7 34 2 11 9 6 8 3-2 4-7 5h-37l-19-1v-4l6-7 4-10-1-4-12-3-9-1v-1h14l28 1-1-3-8-6-5-6-4-10-10-40-21-87-8-31-2-8-12-1 2-2 31-8-9-4-7-6-8-12-2-7v-18l3-9 6-8 10-6 13-8 7-7 2-6 1-35v-112l-1-32-2-11h-2v-2l-9 3-15 2h-64l-8-1v2l-10-1-8-6-10-9-9-10-9-12-10-13-13-16-8-11-11-14-10-13-12-16-8-10-10-13-13-16-7-10-12-14-13-16-8-11-7-5-4-2v-2h-2l-1 5-6 12-11 18-12 16-7 9-12 15-6 8v-3-6l-4-1v2l-5 1-4 4-1 3-4 2-1 2h-2l-1 4h-2l-2 5-7 2-2 4-7 9-5 5h-2l-1-8 7-8 10-15 11-14 9-12 13-17 12-17 13-17 14-19 6-6 4 1 1-3h2l7 11v4h3l4 6 1 3h2l3 4v2h2l4 6 8 10v2h2l7 9 12 15 12 16 13 16v2h2l8 11 7 9 8 10v2h2l10 14 8 10 10 13 2 4h2l8 11 1 3h2l1 4h2l6 8 9 11 7 7 9 1h84l36-1 2 1-1 4-5 1 1 8 1 48v102l-1 34-2 9-2 4h-2l-2 4-11 7-11 6-4 4h-2l-2 5-3 7v20l4 10 6 8 7 6 3 1 36 1h187l7-1 5-5 8-7 5-4h2v-33l-2-4-4-2-8-7-13-7-11-8-5-13-1-12-1-200v-300l1-124 2-13 4-11 8-6 20-11 4-5 3-3 2-8v-17l-3-10-6-7-13-7h-228l-10 6-7 10-2 7v17l3 8 7 9 4 4-5-2-7-7-4-7-2-9v-10l3-11 6-9 6-5 7-3zm-289 321-7 7-11 14-11 16-8 11 1 2h3l9-11 13-16 10-16 1-3 2 2 2-2zm1 10m-39 40m3 0m-4 1m3 0 1 2zm-1 2m-1 1m-4 1-2 5h3l1-3zm3 0m-1 1m-5 4m-1 1m-6 8m-1 1m351 441m319 20v2l-5 1-5 4-1 6v20l8 15 11 14 5 5v-55l-4-10zm32 28-2 10-1 19v32l3 8 2 1 1-22v-24l-1-24zm-247 19-3 2 1 4 5 1 4-1 1-5-2-1zm158 8v14l3 1 3 10h1l-1-10v-7l-3-3-2-5zm0 93-1 5v18l6 2h5l-2-7-1-4v-7l-1-5h-1l-1 8v-6l-1-2h-2zm-33 11 1 3zm0 5m0 3-1 4h3v-4zm-32 19 1 3 18 1 4-2v-1l-5-1z" fill="#B1B2B2"/>
<path transform="translate(126,83)" d="m0 0h219l10 3 9 6 6 9 2 6v22l-3 9-2 3 1 1 36 2 15 2 13 5 10 9 3 9v15l-1 14-3 6-5 5-8 5-15 9-7 5h-2l-1 22-1 199 9 3 5 4 4 11-1 5-5 5-7 8-2 4h2l2-4 7-7 7-8 2-3h2l2-4 8-9 11-14 12-15 8-11 10-13 10-14 7-10 4-6 4-3 7 1 32 16 15 9 16 8 25 14 25 13 10 5 11 7 6 5 3 9v10l-2 1-1 7 3 10 6 6h5l4-2-1-6-4-18v-54l-13 7-5 1-3-3v-7l4-6 12-11 6-3h6l5 4 3 3 9 6 7 6 4 8 5 5 2 5-9-1 4 8 2 6 1 19 4 5h3l4-5 8-4 11-4 12-7 11-4 10-6 17-9 16-9 2-3 1-41 1-80v-89l-1-29-2-7-9-8-13-8 2-1 12 7 10 9 3 8v240l-11 8-9 5-12 7-58 29-1 5 13 16 10 13 4 6h2l4-6 10-14 11-14 12-17 11-14 10-13 5-8h1v19l-11 16-14 18-6 8-10 14-8 10-7 7-1-3 4-5 2-5 3-4h2l1-4 6-9h2l2-4 1-4-5 5-10 14-7 9-4 6h-2l6 9v2h2l4 4 8-10 9-13h2l2-5 2-3h2l2-5 8-12h2v-3h2l2-5 6-9 3-3-1 13-1 10v37l-1 29 1 3 1 59 2 2-2 1-25 1-47 1h-47l-7-2-6-5v-2h-2l-13-17-4-5v-2h-2l-5-7v-2h-2l-1-4h-2l-8-11-9-12-16-21-21-28-8-11-10-13-9-12-16-21-14-19-10-13-14-18-4-6-5 4-4 6h-2l-2 4-5 8h-2l-2 4-3 5h-2l-4 8h-2l-2 4-8 11-6 8h-2l-2 4-12 17h-2l-2 4-7 10-12 16-10 13-13 16-7 9-18 22-28 36-10 15-2 1v-18h1v-15h-1v-28l-1-1v-30l1-9v-23l-1-25 5 5 7 11 13 18 12 15 9 11 3 3h2l3-7-12-16-11-13-9-12-13-16-9-13-2-18v-9l2-3 1-27v-98l1-51 1-53 1-9 5-9 8-6 13-7h2l2-4 6-8 2-8v-16l-3-10-5-7-9-6-3-1h-228l-10 6-7 7-3 5-1 4v20l2 6 5 5 3 4-4-2-6-5-3-8-1-11 1-11 4-8 9-9 10-5zm443 367 2 5 14 20 13 17 10 13 13 17 10 13 7 9 15 20 11 14 11 12 2-1-8-12-12-16h-2l-2-5-13-18-16-21-30-40h-2l-2-4-5-8-8-7h-2l-1-4zm231 15-7 8-14 22-5 6 1 3 3 2h4l2-9v-5l5 1 2 2v10l-3 9h-4l-2 1-1 8-5 8-4 1-6-5-3 3v2h-2l-1-10h-3l-3 2-9-11-1-3h-2l-2-4-4-5h-2l-1-3-5-4-3-5h-2l-1-4-3-1-2-4-5-5-2-1 1 5 5 4 6 8 11 13 18 22 13 18 9 13 8 10 12 13 4 4 3-1 1-14v-25l-1-4-1-29-1-13 2-25 2-8z" fill="#B0B1B1"/>
<path transform="translate(502,398)" d="m0 0h2l7 11v4h3l4 6 1 3h2l3 4v2h2l4 6 8 10v2h2l7 9 12 15 12 16 13 16v2h2l8 11 7 9 8 10v2h2l10 14 8 10 10 13 2 4h2l8 11 1 3h2l1 4h2l6 8 9 11 7 7 9 1h84l36-1 2 1-1 4-5 1 1 8 1 48v102l-1 34-2 9-2 4h-2l-2 4-11 7-11 6-4 4h-2l-2 5-3 7v20l4 10 6 8 7 6 3 1 87 2v1l-28 1 4 2h-24l-5 1-1 6h-18l3 3 6 3 6 5 4 7 8 28 10 41 5 22 5 18 4 16 5 21 5 18 2 9 2 1 2-11 7-29 14-61 5-25 3-12 3-15 5-18 6-10 10-9 6 2 6 4 4 5 2 7 1 88v65l-2 9-5 5-4 3-3 1 32 1h55v-23l1-24h-2l-2 15-5 12-4 6-5 2-6 1h-11l-7-2-4-5-2-4-1-7v-58h26l7 6 3 8-1 4h4v-45l1-9h-6l-1-1v-10l1-1h30v4h2l1 12h9v-9l1-7 4-1v110l-3 12-7 8-4 3h-3l1 3 40 1v-3l-5-2-6-5-4-8-2-10v-119l4 4 5 9 8 13 6 11 11 18 13 21 6 11 9 15 11 19 4 7 7 11-1 2-10-14-12-22-16-26-10-14-4-6v21l1 59 1 17 2 6 2 1v2l4 2 8 7v1h-23l-35-1v-1l13-1 6-9 5-6 2-4-14-3h-9l-4 22-2 3h-32l-56-1v-4l6-3 3-9 1-8-18-2h-22v-3l11-9 3-6v-49l-2-28-2 5-1-2h-3l-1 4-3 3-7 21-9 52-5 18-4 11-3 9-4 1-7-4-3-5-3-9v-3l-4-1-6-2 2-7 2-5 3 1v-2h-2l1-5-1-2-3 6-1 7-3 7h-3l-7-14-5-18-7-23-7-30-3-9-4-2-1-2-2-1 2-4 1 1-2-10-7-27-3-3v-2l-3 1-1 2v9l4 15 2 5 3 23 2 3v12l3 1h-2v2h2l1 12 4 22 7 34 2 11 9 6 8 3-2 4-7 5h-37l-19-1v-4l6-7 4-10-1-4-12-3-9-1v-1h14l28 1-1-3-8-6-5-6-4-10-10-40-21-87-8-31-2-8-12-1 2-2 31-8-9-4-7-6-8-12-2-7v-18l3-9 6-8 10-6 13-8 7-7 2-6 1-35v-112l-1-32-2-11h-2v-2l-9 3-15 2h-64l-8-1v2l-10-1-8-6-10-9-9-10-9-12-10-13-13-16-8-11-11-14-10-13-12-16-8-10-10-13-13-16-7-10-12-14-13-16-8-11-7-5-4-2v-2h-2l-1 5-6 12-11 18-12 16-7 9-12 15-6 8v-3-6l-4-1v2l-5 1-4 4-1 3-4 2-1 2h-2l-1 4h-2l-2 5-7 2-2 4-7 9-5 5h-2l-1-8 7-8 10-15 11-14 9-12 13-17 12-17 13-17 14-19 6-6 4 1zm-2 6-7 7-11 14-11 16-8 11 1 2h3l9-11 13-16 10-16 1-3 2 2 2-2zm1 10m-39 40m3 0m-4 1m3 0 1 2zm-1 2m-1 1m-4 1-2 5h3l1-3zm3 0m-1 1m-5 4m-1 1m-6 8m-1 1m351 441m104 67-3 2 1 4 5 1 4-1 1-5-2-1zm158 8v14l3 1 3 10h1l-1-10v-7l-3-3-2-5zm0 93-1 5v18l6 2h5l-2-7-1-4v-7l-1-5h-1l-1 8v-6l-1-2h-2zm-33 11 1 3zm0 5m0 3-1 4h3v-4zm-32 19 1 3 18 1 4-2v-1l-5-1z" fill="#D4D5D4"/>
<path transform="translate(637,923)" d="m0 0h57l2 2-8 7-1 2v12l25 1 11 1 3 1 1 6-6 4-4 9-1 4v77l1-1 7-15 7-40 7-31 6-16 5-16 2-6h14l2 3 5 22 14 56 17 71 6 21 5 8 7 6 3 2v3h-58l-11 10-1 6 7 5-3 1 2 4-3 2h-31l-8-1 3-1v-2l2-1h-14l-3-1v-5h7l1-2 5 4h6l7-4 2-5-1-5-6-3h-11l-11 3h-21l-17-4-9-1h-20l-3 2 2-5 10-5 7-2v-81l-55-1 1 77 3 5 5 4 6 4v2l-7 1-24-1h-12l-12-1v-2l8-2 5-10 1-5-1-114v-40l-3-9-6-5-5-2v-2h60l-1 3-13 9-1 2v8l16 2 16 1 6 2-2 6h-3l-1 3-2 1-1 9-1 29-2 3-1 6 11 2 13 1-1-73-2-4-12-6-3-4zm88 29m24 42-5 13-5 17v6l8 1 9-1 3-2v-10l-2-10-4-8-2-1-1-5zm-6 51-5 4-5 8-4 13-4 19v5l5 3 11 2 7-36 2-18zm25 30-4 12-6 25-1 5 4-2 8-3 10-7 1-4-2-9-3-13-3-4zm-44 24v5l10 4 4-1 1-6-7-2zm-26 3-5 1v2h6l1-3zm58 16 1 2z" fill="#010101"/>
<path transform="translate(445,919)" d="m0 0 10 3 94 1 1 12-1 10 8 1 1 5v5h2v-5l4-1 1 2v6h2l-1 10h2v-9l1-15-4-11-2-3-9-3-1-4h60v1h-55v2l7 2 6 7 2 7v50l1 104h-1l-1-13-6-11-4-3h-2l-5 16-2 16-1 10 10-1 6-5 4-8 1 4-3 6-5 5-6 1v2h33l22 1-4-4-6-4-4-4-1-3v-77h55l1 1v76l-1 5-2-1v-54l-3 1-3-3v-4-10l5-2v-7h-13l-8 1 2 6 9 1 1 1v17l-3 1h-7v35l1 33-3 6v3l-2 1 3 2-4 3-11-1-7-3h-10l-1-2 4-1h12l5-1v-4l-7-2-15-2-3-1-14-1v5l-4 1h-5-3l-2-4-15-1h-48l-6-1h-17l-5 1-1 3h-20l-10-1-1-2-14-2h-12l-6 1-2 5-4 18-1 1h-5l-8-16-3-10-2-10-3-3h-4l-1 2-1 9-12 1-1-2-2-18-2-11h-4l-1 28 4 2-2 2 1 6h-18l-5-3-5-2-6-1v-1h11l7 1-4-4-6-4-5-6-3-12v-17l3-39 3-54v-11h2l8 26 16 62 10 34 5 19v3h3l2-10 7-24 14-57 5-24 6-20 2-7 2-6h2l3 67 2 50v20l-6 7-5 3h-2v3h145l-1-7 2-39h-2l-2 14-4 10-5 8-5 2-6 1h-10l-8-2-6-8-1-5v-60l1-1h25l7 6 3 7v5l2-1-1-43-3 5-7 8-2 1h-24l-1-1v-79h31l4 5 3 3 3 12 1 11h2v-43h-85v3l7 2 3 2v2h2l3 9 1 30v120l-3 13-5 6-5 2h-7l-8-6-4-11-2-22-4-77-2-41v-17l4-7h2v-2l6-3h2v-4h-6zm61 19v5l1 1h10v-5l-1-1zm17 1-1 4 3 1v-2l8 2 1-4-2-1zm10 5m8 26-3 1-1 3v15l4 3 3 1 1 2v38l5 5 3 2 5-1 5-17 4-7 2-1 1-3v-16l-1-6-1-17h-2l-1-2zm-206 24-2 6-3 47-3 21-1 6v21l3 7 5 5 10 2 1-30 3-17 1-5-2-24-6-24-3-6-2-9zm74 8-2 2 1 2h-2v6l-3 1v13l2 5 2 11 5 1-2-41zm98 29v3l22 5 3-1v-2l-14-4zm0 10v13l8 1 3-1 3-5 3 3 2-3 3-1 2-5h-10zm3 17 3 3h5v-2zm13 3m3 0 3 3 5 1v2l-3 1v7l-3 2v2l-6-2-1 2h-2l-2-3h-5v-2h3v-2l-6-2v5h-2l-1 14 3 7 8 5 3 1h7l6-3 5-5 4-6 2-8v-11l-2-3h6l1-2-20-3zm-14 4v2l3 1-1-3zm3 3m-1 1m-50 35m151 26-2 2 5-1z" fill="#D0D1D0"/>
<path transform="translate(304,924)" d="m0 0h44l3 8 13 49 13 48 4 15v4h2l4-18 12-46 5-21 9-35 2-4h37v3l-6 3h-2v2h-2l-2 6-1 1v17l6 118 2 22 4 11 7 5h7l6-3 3-4 3-13v-120l-1-30-2-9h-2v-2l-4-2-6-2v-3h85v43h-2l-4-21-1-4-3-1-3-4-31-1 1 79h24l7-6 3-6 3-3 1 45-3 1-3-10-4-5-3-2h-25v60l2 7 4 5 8 2h10l9-2 4-4 4-8 3-10 2-10h2v16l-1 30-20 1h-125l-1-2 3-3 8-6 2-3v-20l-4-95v-22h-2l-2 12-3 8-6 21-5 24-16 64-6 19h-3l-8-29-9-31-16-62-6-20v-2h-2l1 2-1 25-3 54-2 23v17l3 12 6 7 8 5v2h-40l1-4 6-4 5-12 3-15 5-68 3-50 1-11-4-9-6-8-7-6z" fill="#010101"/>
<path transform="translate(45,923)" d="m0 0h25l16 1-4 4-9 6-4 3v6l2 2 39 2v4l6-1 1 7-2 2-8 2-5 6-1 29-1 12 18 2v-74l-5-5-5-4v-3l55-1v4l-10 5-3 9v158l3 8 6 4 5 3-1 2h-28l-26-1 1-4 8-5v-53l-16 3-1 1v63l-3 12h2l1 3-35-1 1-5 4-5h7l7 1-23-7-16-2-18-1 1-4 8-6h2v-169l-9-8-3-3v-1zm55 105 1 4 3 1h11l3-3v-2zm-12 98m7 1v2l2-1z" fill="#050505"/>
<path transform="translate(519,379)" d="m0 0 6 1 17 8 8 5 11 6 19 10 11 6 15 8 16 8 9 5 14 9 4 4v2l-3 2 2 1-1 3-1 1 4 1h-4v9l3 13 2 2 2 7 5 3 11-2 1-3-1-14-1-55 1-5 4 2 10 6 7 7 2 4-1 6v23l5 8 8 7 9 11 8 9 9 11 4 5v2h2l7 9 1 3h2l8 11 13 15 13 16 11 13 3 3v2l-101 1-12-1-10-14-14-19-11-14-9-11-10-14-14-18-12-16-13-16-24-32-14-18-14-17-9-10-8-7z" fill="#010101"/>
<path transform="translate(222,924)" d="m0 0h18l12 4 11 7 8 8 9 14 5 11 4 14 3 16 1 10v26l-3 19-4 16-7 15-6 10-6 8-5 3-12 7-13 4h-11l-15-4-4-2v-2l-4-1v-2l-4-2-5-5v-2h-2l-1-4h-2l-9-16-5-15-4-20-1-10v-27l3-19 5-18 8-16 8-10 7-7 9-6zm29 53-6 4-6 9-7 21-2 13-1 13v18l3 27 3 17 3 2 7-2 5-4 4-8 3-12 4-25 2-13 1-17v-13l-1-16-4-11-4-3z" fill="#010101"/>
<path transform="translate(1051,969)" d="m0 0 4 4 5 9 8 13 6 11 11 18 13 21 6 11 9 15 11 19 4 7 7 11-1 2-10-14-12-22-16-26-10-14-4-6v21l1 59 1 17 2 6 2 1v2l4 2 8 7v1h-23l-35-1v-1l13-1 6-9 5-6 2-4-14-3h-9l-4 22-2 3h-32l-56-1v-4l6-3 3-9 1-8-18-2h-22v-3l11-9 4-8 1 4-2 5-5 5-6 3 32 1h55v-23l1-24h-2l-2 15-5 12-4 6-5 2-6 1h-11l-7-2-4-5-2-4-1-7v-58h26l7 6 3 8-1 4h4v-45l1-9h-6l-1-1v-10l1-1h30v4h2l1 12h9v-9l1-7 4-1v110l-3 12-7 8-4 3h-3l1 3 40 1v-3l-5-2-6-5-4-8-2-10zm9 21v14l3 1 3 10h1l-1-10v-7l-3-3-2-5zm0 93-1 5v18l6 2h5l-2-7-1-4v-7l-1-5h-1l-1 8v-6l-1-2h-2zm-33 11 1 3zm0 5m0 3-1 4h3v-4zm-32 19 1 3 18 1 4-2v-1l-5-1z" fill="#F9F9F9"/>
<path transform="translate(1017,924)" d="m0 0h44l16 27 14 24 10 18 10 17 12 20 8 14v2h2l-1-4v-97l-3-8-8-7-2-1v-2h-2v-2l18-1h18l-1 5-5 10v9h33l6 2 1 5-7 6-4 6-2 9-2 147-1 21-8-1-6-5-7-13-10-9-5-4-3-8-8-11-7-14-11-18-8-13-6-11-11-18-12-20-9-16-5-7-3-5v117l3 13 3 5 3 2v2l5 2 2 1v3h-40l-2-2 1-2 7-4 6-7 3-12v-132l-8-13-9-11-9-7zm132 39-2 10-1 19v32l3 8 2 1 1-22v-24l-1-24z" fill="#010101"/>
<path transform="translate(839,923)" d="m0 0h18l-2 4-7 6-1 6 5 25 7 28 9 38 3 14h2l2-13 11-49 5-26 1-14-3-8-2-4-5-2-3-4 5-1h26l98 1v44h-4l-2-15-3-10-4-5-2-1h-29v78h24l6-5 5-10 1-7h2v48l1 2-1 3h-4l-1-7-3-6-5-4-26-1 1 58 2 9 4 6 7 2h11l9-2 4-4 4-8 3-10 1-9 1-2h2v24l-1 23-3 1h-52l-33-1 1-2 6-3 3-1 2-4 2-9v-65l-1-88-3-9-6-5-6-3-4 2-8 7-6 11-6 24-3 14-5 23-3 15-10 45-6 24-5 22-1 2-3-1-6-25-4-15-21-84-5-21-8-28-4-7-6-5-6-3v-2z" fill="#010101"/>
<path transform="translate(342,154)" d="m0 0 2 1-4 4h-2v2h-2l-1 19-1 46v143l-1 50 10 3 17 10 16 8 16 6 6 4 11 4 4 2 1 5-5 12-8 9 1 5 4 13-13 16-7 9-18 22-28 36-10 15-2 1v-18h1v-15h-1v-28l-1-1v-30l1-9v-23l-1-25 5 5 7 11 13 18 12 15 9 11 3 3h2l3-7-12-16-11-13-9-12-13-16-9-13-2-18v-9l2-3 1-27v-98l1-51 1-53 1-9 5-9z" fill="#7A7C7B"/>
<path transform="translate(919,925)" d="m0 0 6 2 6 4 4 5 2 7 1 88v65l-2 1-1-47-2-28-2 5-1-2h-3l-1 4-3 3-7 21-9 52-5 18-4 11-3 9-4 1-4-2-5-15-4-16-2-12h-2l-3-4-2 2 1-9 13-57 4-17 5-25 3-12 3-15 5-18 6-10zm-17 57-3 2 1 4 5 1 4-1 1-5-2-1z" fill="#B1B2B2"/>
<path transform="translate(778,147)" d="m0 0 6 2 11 7 8 8 2 7v240l-11 8-9 5-12 7-58 29-1 5 13 16 10 13 4 6h2l4-6 10-14 11-14 12-17 11-14 10-13 5-8h1v19l-11 16-14 18-6 8-10 14-8 10-7 7-1-3 4-5 2-5 3-4h2l1-4 6-9h2l2-4 1-4-5 5-10 14-7 9-4 6h-2l6 9v2h2l4 4 8-10 9-13h2l2-5 2-3h2l2-5 8-12h2v-3h2l2-5 6-9 3-3-1 13-1 10v37l-1 29 1 3v50l-9-1 1-3-4-2-7-7-9-11-13-16-12-14-6-8v-2h-2l-8-10v-2h-2l-10-13-24-28-7-6-3-6v-26l1-4-9-10-9-5-4-3v2l2 1h-2l1 57 1 15-2 3-11 2-5-3-2-3-5-15-1-9 1-8 2-2-3-1 1-2h3l-5-6-9-6-11-6-17-8-7-4-9-5-19-10-18-10-14-8-18-8-8-3-1-3-4-2-1-3 5 2 26 12 18 11 16 8 25 14 25 13 10 5 11 7 6 5 3 9v10l-2 1-1 7 3 10 6 6h5l4-2-1-6-4-18v-54l-13 7-5 1-3-3v-7l4-6 12-11 6-3h6l5 4 3 3 9 6 7 6 4 8 5 5 2 5-9-1 4 8 2 6 1 19 4 5h3l4-5 8-4 11-4 12-7 11-4 10-6 17-9 16-9 2-3 1-41 1-80v-89l-1-29-2-7-9-8-13-8zm22 318-7 8-14 22-5 6 1 3 3 2h4l2-9v-5l5 1 2 2v10l-3 9h-4l-2 1-1 8-5 8-4 1-6-5-3 3v2h-2l-1-10h-3l-3 2-9-11-1-3h-2l-2-4-4-5h-2l-1-3-5-4-3-5h-2l-1-4-3-1-2-4-5-5-2-1 1 5 5 4 6 8 11 13 18 22 13 18 9 13 8 10 12 13 4 4 3-1 1-14v-25l-1-4-1-29-1-13 2-25 2-8z" fill="#D9DAD9"/>
<path transform="translate(1051,969)" d="m0 0 4 4 5 9 8 13 6 11 11 18 13 21 6 11 9 15 11 19 4 7 7 11-1 2-10-14-12-22-16-26-10-14-4-6v21l1 59 1 17 2 6 2 1v2l4 2 8 7v1h-23l-35-1v-1l13-1 6-9 5-6 2-4-14-3h-9l-4 22-2 3h-32l-56-1v-4l6-3 3-9 1-8-18-2h-22v-3l11-9 4-8 1 4-2 5-5 5-6 3 32 1h55l-1 2-14 1v5l2 1v2h24l4-5 1-4-1-2 42 1v-3l-5-2-6-5-4-8-2-10zm9 21v14l3 1 3 10h1l-1-10v-7l-3-3-2-5zm0 93-1 5v18l6 2h5l-2-7-1-4v-7l-1-5h-1l-1 8v-6l-1-2h-2z" fill="#D6D7D6"/>
<path transform="translate(751,924)" d="m0 0 2 1-12 48-9 42-4 16-4 20-8 35-5 13-6 9-6 5-8-1-6-4-3-6-1-5v-158l5-8 3-3 3 1-5 5v12l25 1 11 1 3 1 1 6-6 4-4 9-1 4v77l1-1 7-15 7-40 7-31 6-16 5-16zm-26 28m-27 150-5 1v2h6l1-3z" fill="#AFB0B0"/>
<path transform="translate(225,936)" d="m0 0h12l8 3 7 8 5 11 6 21 2 16 1 13v26l-4 32-4 19-4 8-5 6-9 5h-15l-8-4-6-7-5-10-4-13-3-18-2-27v-24l4-29 5-16 7-12 7-6zm26 41-6 4-6 9-7 21-2 13-1 13v18l3 27 3 17 3 2 7-2 5-4 4-8 3-12 4-25 2-13 1-17v-13l-1-16-4-11-4-3z" fill="#AEAFAF"/>
<path transform="translate(1150,928)" d="m0 0 2 1-5 10v9h33l6 2 1 5-7 6-4 6-2 9-2 147-1 21-8-1-6-5-7-13-10-9v-169l2-8 5-8 3-1zm-1 35-2 10-1 19v32l3 8 2 1 1-22v-24l-1-24z" fill="#B3B4B4"/>
<path transform="translate(412,965)" d="m0 0h2l3 67 2 50v20l-6 7-5 3h-2v3h143v1l-14 2-32 1-6-1h-17l-5 1-1 3h-20l-10-1-1-2-14-2h-12l-6 1-2 5-4 18-1 1h-5l-8-16-3-10-2-10-3-3h-4l-1 2-1 9-12 1-1-2-2-18-2-11h-4l-1 28 4 2-2 2 1 6h-18l-5-3-5-2-6-1v-1h11l7 1-4-4-6-4-5-6-3-12v-17l3-39 3-54v-11h2l8 26 16 62 10 34 5 19v3h3l2-10 7-24 14-57 5-24 6-20 2-7zm-77 29-2 6-3 47-3 21-1 6v21l3 7 5 5 10 2 1-30 3-17 1-5-2-24-6-24-3-6-2-9zm74 8-2 2 1 2h-2v6l-3 1v13l2 5 2 11 5 1-2-41z" fill="#D4D5D4"/>
<path transform="translate(775,949)" d="m0 0h21l6 21 12 49 19 79 5 23-2 5 4 2 3 3v2l4 2 6 4 1 4-4 3h-37l-19-1v-4l6-7 4-10-1-4-12-3-9-1v-1h14l28 1-1-3-8-6-5-6-4-10-10-40-21-87-2-8 1-6z" fill="#B0B1B1"/>
<path transform="translate(502,509)" d="m0 0 9 2 9 6 10 10 5 9 2 9 4 2 1 5-2 8h-6l-1 2v9l2 10 2 2 1 5 4 1 1 3v14l-1 1h-14l-2-1-1-4h-8l-4 1-2 4-4-1-4 1-9-4-15-8-4-5-2-5v-14l4-16-4-8v-7l7-16 4-8 8-4zm37 42 1 2zm-4 50 4 1z" fill="#7A7C7B"/>
<path transform="translate(599,1024)" d="m0 0h55l1 1v76l-1 5-2-1v-54l-3 1-3-3v-4-10l5-2v-7h-13l-8 1 2 6 9 1 1 1v17l-3 1h-7v35l1 33-3 6v3l-2 1 3 2-4 3-11-1-7-3h-10l-1-2 4-1h12l5-1v-4l-7-2-15-2-3-1-14-1v5l-4 1h-5-3l-2-4-31-2 4-2 12-1-1-7 2-39h-2l-2 14-4 10-4 7h-6v-3l5-5 3-7 1-5v-11l-1-3 6-1-13-3 1-2 22 1 7 8h-3-2l-5 16-2 16-1 10 10-1 6-5 4-8 1 4-3 6-5 5-6 1v2h33l22 1-4-4-6-4-4-4-1-3zm16 106-2 2 5-1z" fill="#D7D8D7"/>
<path transform="translate(783,911)" d="m0 0h37l51 1v1l-28 1 4 2h-24l-5 1-1 6h-18l3 3 6 3 6 5 4 7 8 28 10 41 5 22 5 18 4 16 5 21 5 18 2 9 2 1 2-11 2-7h2l1-3 3 3v2h2l3 12 6 23 2 7-4-2-4-9-1-7-4-1-6-2 2-7 2-5 3 1v-2h-2l1-5-1-2-3 6-1 7-3 7h-3l-7-14-5-18-7-23-7-30-3-9-4-2-1-2-2-1 2-4 1 1-2-10-7-27-3-3v-2l-3 1-1 2v9l4 15 2 5 3 23 2 3v12l3 1h-2v2h2l1 12 4 22 7 34 2 11 9 6 8 3-2 4-3 1-5-5-6-4-5-6-2-1 1-5-5-23-34-140-2-9-21 1-1 2h-2l-5-19-2-8-12-1 2-2 31-8-3-1z" fill="#F7F7F7"/>
<path transform="translate(67,1024)" d="m0 0h55l1 1v72l-1 7-7 8-6 1 4-4 5-3v-53l-16 3-1 1v63l-3 12h2l1 3-35-1 1-5 4-5h7l7 1-23-7-16-2v-1l35 1-1-3-7-4-5-5-1-3zm33 4 1 4 3 1h11l3-3v-2zm-12 98m7 1v2l2-1z" fill="#AFB0B0"/>
<path transform="translate(964,936)" d="m0 0h29l5 5 3 4 3 13v10h4v-20h31l5 9v22l-3 1-2 16h-9l-1-4v-8h-2v-4l-30 1v10l6 1-1 49h-1v-45l1-3h-2v7l-5 10-7 6h-24l-1-1v-78z" fill="#ACADAD"/>
<path transform="translate(327,450)" d="m0 0 5 5 7 11 13 18 12 15 9 11 6 6 2 7-1 10-8 9-22 28-12 16-8 12-2 1v-18h1v-15h-1v-28l-1-1v-30l1-9v-23z" fill="#AEAFAF"/>
<path transform="translate(543,424)" d="m0 0 4 3v2h2l8 11 5 5v-2h-2l-2-5h-2l-2-6 3 1 7 9 6 8 2 5 14 20 13 17 10 13 13 17 10 13 7 9 15 20 11 14 10 11-1-3-11-16-6-8-3-3-10-14-14-19-13-17-14-19-9-11v-2h-2l-7-10v-2l-4-2-6-5-1-4-2-1-3-6-6-8 4-1h2l14 19 12 15 13 17 14 18 18 24 8 10 10 13 9 12 14 20 12 1 102-1 2 1v2l8 2 1 9 2 2-2 1-25 1-47 1h-47l-7-2-6-5v-2h-2l-13-17-4-5v-2h-2l-5-7v-2h-2l-1-4h-2l-8-11-9-12-16-21-21-28-8-11-10-13-9-12-16-21-3-4z" fill="#D7D7D7"/>
<path transform="translate(1e3 155)" d="m0 0 2 1-5 5-2 9-1 39-1 146v74l1 200v114l1 82 3 8 15 10 10 5 10 7 1 5v32l-2 7-10 9-5 3h-5l3-5 6-4 7-7 4-1v-33l-2-4-4-2-8-7-13-7-11-8-5-13-1-12-1-200v-300l1-124 2-13 4-11z" fill="#7B7D7C"/>
<path transform="translate(288,1065)" d="m0 0 2 2-3 27-2 12-1 11h2l2 4h3v-2l5-4h4l2 2h5v-2h11v1l-10 2-8 7-9 9-11 7-11 4-7 1h-9l-15-5-11-7-10-10-7-9-11-10-8-7-9-7-1 6v33l4 4 9 6-2 4-7 3h-24l-28-3-3-3 13-7 3-6 4-5 4-2-19-3h-31l1-3 4-2v2h26l31 1-2-3v-3l5-2h3l2-6 1-9 4-7 1-6 4 1 5 9v2h2l1 4h2l7 8 2 1v2l4 1v2l10 3 9 2h11l13-4 12-7 4-2-5 6-10 6-8 4 9 8 4 1h8l10-4 6-7 3-27v-3l-11 12-3 3-2-1 8-10 12-24zm-12 69-9 2-11 4 1 3h11l1-3 8-4 1-2z" fill="#D6D7D7"/>
<path transform="translate(445,951)" d="m0 0h6l4 7 3 13v2l2 1 1 2 2-4 5-6 2-4 4-4 3 5v100l-1 12-2-1-3-11-1-17-1-3-4 1-1 9-2 6-2 11-3 4h-2v-2h-2l-3-13v-4h-3l-2-26-2-2v-17l-1-20-1-5v-20h2l1-13z" fill="#D7D8D7"/>
<path transform="translate(1024,1020)" d="m0 0h7l-3 6 1 10v32l-3 3-3-1-4-7-4-2h-19l-1 37 4 3-5 2-6 1h-11l-7-2-4-5-2-4-1-7v-58h26l7 6 3 8-1 4h4v-5l16-2 2-5z" fill="#AEAFAF"/>
<path transform="translate(732,1044)" d="m0 0h35l3 7 6 25 4 15 1 14-8 7-3 3-5 2-10 9-1 6 7 5-3 1 2 4-3 2h-31l-8-1 3-1v-2l2-1h-14l-3-1v-5h7l1-2 5 4h6l7-4 2-5-1-5-6-3h-11l-11 3h-21l-17-4-9-1v-1h75l-4-4-6-5-1-2v-16l7-35zm11 1-5 4-5 8-4 13-4 19v5l5 3 11 2 7-36 2-18zm25 30-4 12-6 25-1 5 4-2 8-3 10-7 1-4-2-9-3-13-3-4zm-44 24v5l10 4 4-1 1-6-7-2zm32 19 1 2z" fill="#D7D8D7"/>
<path transform="translate(503,936)" d="m0 0h31l4 5 3 3 3 12 1 11-9 1v24h7l-1 50h-1l-1-40-3 5-7 8-2 1h-24l-1-1zm3 2v5l1 1h10v-5l-1-1zm17 1-1 4 3 1v-2l8 2 1-4-2-1z" fill="#AEAFAF"/>
<path transform="translate(108,926)" d="m0 0 7 2 6 7 1 3v74h-54l-1-1v-74h1l2 7 1 1 39 2v4l6-1 1 7-2 2-8 2-5 6-1 29-1 12 18 2v-74l-5-5z" fill="#CECFCE"/>
<path transform="translate(637,923)" d="m0 0h57v1h-54v3l6 1 5 3 3 5 1 4v71l-1 1h-54l-1-1v-71l3-7 7-6 4-3h5l-1 3-13 9-1 2v8l16 2 16 1 6 2-2 6h-3l-1 3-2 1-1 9-1 29-2 3-1 6 11 2 13 1-1-73-2-4-12-6-3-4z" fill="#D5D6D5"/>
<path transform="translate(441,934)" d="m0 0 1 4v10h26l8 1v-7h1v21l-4-4-2 3-1 5-4 2-4 5-1 4-2-4-2-3-4-16-2-4-6 1-1 11-1 2h-2l1 20 1 5 1 21v15l2 3 1 18v8h3l2 10 1 1v6h2v2l4-4 2-13 3-9 1-4 4-1 2 3 1 17 3 11 1-11 1-91h1v120l-3 13-5 6-5 2h-7l-8-6-4-11-2-22-4-77-2-41v-17z" fill="#AAABAB"/>
<path transform="translate(797,621)" d="m0 0h11l2 1-1 4-5 1 1 8 1 48v102l-1 34-2 9-2 4h-2l-2 4-11 7-11 6-4 4h-2l-2 5-3 7v20l4 10 6 8 7 6 3 2-4 1-9-7-9-13-2-7v-18l3-9 6-8 10-6 13-8 7-7 2-6 1-35v-112l-1-32-2-11h-2v-2l-9 3-15 2h-64l-8-1v2l-10-1-2-1-4-7-5-6h92z" fill="#D3D4D3"/>
<path transform="translate(396,535)" d="m0 0 4 1 1-1h1l1 5v24l-3 6-13 18-10 14-14 18-10 13-8 10-4 1v-25l3-10 10-16 4-5 6-10 5-4 6-7 11-15 4-9 3-5z" fill="#7B7D7C"/>
<path transform="translate(330,419)" d="m0 0 8 1 10 5 23 13 21 8 6 4 11 4 4 2 1 5-5 12-9 10-3 5-7 7-4-4-5-8v-2l-4-2-7-9-8-10-11-14-11-12-8-10z" fill="#010101"/>
<path transform="translate(116,147)" d="m0 0 4 1 12 7 8 7 4 10 1 14v608l-1 27-4 10-9 8-14 8-11 7-5 6-1 4v21l2 7 3 4v2l-4-2-3-4-2-11v-14l2-8 4-5 15-10 12-7 7-6 3-5 1-7 1-42 1-215v-58l-1-331-3-9-9-8-13-8z" fill="#B0B1B1"/>
<path transform="translate(936,1097)" d="m0 0 1 4-2 5-5 5-6 3 32 1h55l-1 2-14 1v5l2 1v2h24l4-5 1-4-1-2 19 1-3 21-3 7h-32l-56-1v-4l6-3 3-9 1-8-18-2h-22v-3l11-9z" fill="#D5D6D5"/>
<path transform="translate(445,919)" d="m0 0 10 3 94 1 1 12-1 10 8 1 1 5v5h2v-5l4-1 1 2v6h2l-1 10h2v-9l1-15-4-11-2-3-9-3-1-4h60v1h-55v2l7 2 6 7 1 3v20l-1 10v23l1 4v34l-1 6-8-1-2 5-2 3h-17v-40l1-10 3 3v38l4 4 3 2h4l5-17 5-8h2v-19l-1-6v-17l-3-1h-27v18l3 3h-5v-24l4-1h7v-43h-85v3l7 2 3 2v2h2l2 5v11l-34-1-1-12 1-4h2v-2l6-3h2v-4h-6z" fill="#D2D3D2"/>
<path transform="translate(848,948)" d="m0 0h38l2 1-1 10-3 2h-4l1 21 2 3 1 10-10 46-1 3h-2l-5-18-10-42-7-29z" fill="#ADAEAE"/>
<path transform="translate(1099,914)" d="m0 0 3 3 4 8 17-2h30v1l-18 1h-18v2h2v2l5 2 7 8 2 6v101h-2l-14-25-11-18-16-28 1-3 3 3 3-8 3-1 2-15v-25zm18 21v2l-5 1-5 4-1 6v20l8 15 11 14 5 5v-55l-4-10z" fill="#AFB0B0"/>
<path transform="translate(806,449)" d="m0 0h1l-1 13-1 10v37l-1 29 1 3v50l-9-1 1-3-4-2-7-7-9-11-13-16-10-12 1-3-5-6v-5l5 5 12 17 10 14 12 14 8 8h2l1-14v-25l-1-4-1-29-1-13 2-25 2-7-5 5-8 11-8 13-5 6v2l7 3 1-14 5-1 4 4v10l-3 9-4 2-2-1-1 8-5 8-5 2-6-5-3 4h-2l-2-5v-5l-5 3-4-5 6 1v-2h-2v-2h3l8-10 9-13h2l2-5 2-3h2l2-5 8-12h2v-3h2l2-5 6-9z" fill="#D6D7D6"/>
<path transform="translate(1051,969)" d="m0 0 4 4 5 9 8 13 1 5-1 30-1 60h-1l-1 9-2-4v-10l-3 1v21l-3-1-4-8-2-10zm9 21v14l3 1 3 10h1l-1-10v-7l-3-3-2-5z" fill="#F6F6F6"/>
<path transform="translate(919,925)" d="m0 0 6 2 6 4 4 5 2 7v36l-20 1-22-1 2-12 5-21 6-11 7-7z" fill="#AFB0B0"/>
<path transform="translate(794,586)" d="m0 0 3 1v2l8 2 1 9 2 2-2 1-25 1-47 1h-47l-7-2v-4l5 2v-9l5-1 78-1 1-1-57-1v-1z" fill="#7B7D7C"/>
<path transform="translate(180,1080)" d="m0 0 4 1 5 9v2h2l1 4h2l7 8 2 1v2l4 1v2l3 1 3 4-1 2-8-8-10-8-9-8-3-2-1 6v33l4 4 9 6-2 4-7 3h-24l-28-3-3-3 13-7 3-6 4-5 4-2-19-3h-31l1-3 4-2v2h26l31 1-2-3v-3l5-2h3l2-6 1-9 4-7z" fill="#D7D8D7"/>
<path transform="translate(599,1024)" d="m0 0h32v1l-30 1 2 5-1 28 1 5 2 1 2-5 3-1h11l3 2 2 5 3 17 1 24v10l-2 4-6 1-5-4-6-1 3-1-4-4-6-4-4-4-1-3z" fill="#AFB0B0"/>
<path transform="translate(502,509)" d="m0 0 9 2 9 6 10 10 5 9 2 9 4 2 1 5-2 8h-6l-1 2v9l2 10 2 2 1 5 4 1 1 3v14l-1 1h-14l-2-1-1-4h-8l-4 1-2 4-4-1-4 1-9-4-15-8-4-5-2-5v-14l4-16-4-8v-7l7-16 4-8 8-4zm0 3-14 5-6 8-5 13-3 2 1 6 1 3h2v12l-1 7-2 3-1 8 4 10 8 6 5 1 2-4h3v-2l5-1 1 3 3-11 4 12 5 2 12-1 1-1v-63l-6-8-5-5-8-4zm37 39 1 2zm-4 50 4 1z" fill="#D8D9D8"/>
<path transform="translate(964,936)" d="m0 0h29l5 5 3 4 3 13v10l-8 1v10h-32l-1-42z" fill="#7B7D7C"/>
<path transform="translate(508,369)" d="m0 0 5 2 26 12 18 11 16 8 25 14 25 13 10 5 11 7 6 5 3 9v10l-2 1-1 7 3 10 6 6h5l4-2-1-6-4-18v-54l-13 7-5 1-3-3v-7l4-6 12-11 6-3h6l5 4 3 3 9 6 7 6 4 8 5 5 2 5-5-1-2-5-3-1-2-5-12-12-9-7-3-3-5 1-11 10-7 7-1 5 7-4 3-1 2-4 9-8 5 1 5 6-4-1v7h-5v1l2 22 1 42 1 15-2 3-11 2-5-3-2-3-5-15-1-9 1-8 2-2-3-1 1-2h3l-5-6-9-6-11-6-17-8-7-4-9-5-19-10-18-10-14-8-18-8-8-3-1-3-4-2z" fill="#E7E7E7"/>
<path transform="translate(448,490)" d="m0 0h5v7l-3 6-12 16-14 18-12 17-7 12-2 6v292h-1l-1-54v-244l1-2v-24l-1-6 6-4h2l2-5 8-10h2l1-2 5-3 1-2h2l1-4h2l2-4h3l1-4 5-5 4 1z" fill="#B4B5B5"/>
<path transform="translate(94,1025)" d="m0 0h29v72l-1 7-7 8-6 1 4-4 5-3v-53l-16 3-1 1v63l-3 12h2l1 3-35-1 1-5 4-5h7l7 1-23-7-16-2v-1h11l25 2 5 5 5 3h3l2-6v-29l1-35 3-2 3-6h3l1-9-10-2-4-8zm6 3 1 4 3 1h11l3-3v-2zm-12 98m7 1v2l2-1z" fill="#DBDCDB"/>
<path transform="translate(80,949)" d="m0 0h26v8l-5 8h-2l-1 31h-2l-2 5-8 1-9-1-3-3-1-8 3-34 3-6z" fill="#B0B1B1"/>
<path transform="translate(751,924)" d="m0 0 2 1-12 48-9 42-4 16-4 20-8 35-3 7h-2v-21l-2-22 1-22 1-43 1-17 2-4 2-1 3-6 4-5h4v3l-6 4-4 9-1 4v77l1-1 7-15 7-40 7-31 6-16 5-16z" fill="#EFF0EF"/>
<path transform="translate(895,979)" d="m0 0h22l1 3-13 57-4 16-3-1-8-32-1-2v-17l5-23zm7 3-3 2 1 4 5 1 4-1 1-5-2-1z" fill="#F8F8F8"/>
<path transform="translate(572,942)" d="m0 0h1v50l1 104h-1l-1-13-6-11-8-10-8-2-14-1-1-1v-6l1-3v-7l-1-8 3 4 1 8 2-1 1-3 6-1h11l4-7 4-1 4 2v-40l-1-4v-23z" fill="#AFB0B0"/>
<path transform="translate(782,1115)" d="m0 0h14l28 2v1l-7 1v2l15 5 3 3 2 5 4 3 5 2v2l6 2-2 3h-37l-19-1v-4l6-7 4-10-1-4-12-3-9-1z" fill="#D7D8D7"/>
<path transform="translate(1150,928)" d="m0 0 2 1-5 10v9l7 1v2h-2l1 13 2 2 1 18v73h-3l-10-16-1-3v-79l6 1-1-10-6-3v-6l5-9 4-2zm-1 35-2 10-1 19v32l3 8 2 1 1-22v-24l-1-24z" fill="#FDFDFD"/>
<path transform="translate(755,1048)" d="m0 0 5 2 3 8 1 12-1 1-1 7-1 2-1 11-1 10h-2l-1 4-1 2-2 18-7 6-6-1-2-1v-9l10-42 6-28z" fill="#B0B1B1"/>
<path transform="translate(543,424)" d="m0 0 4 3v2h2l8 11 5 5v-2h-2l-2-5h-2l-2-6 3 1 7 9 6 8 2 5 14 20 13 17 10 13 13 17 10 13 7 9 15 20 11 14 10 11 5 5 4 1 2-2-1 8-4-1v2l-5-2-2-4h-2l-13-17-4-5v-2h-2l-5-7v-2h-2l-1-4h-2l-8-11-9-12-16-21-21-28-8-11-10-13-9-12-16-21-3-4z" fill="#D3D4D3"/>
<path transform="translate(806,414)" d="m0 0h1v19l-11 16-14 18-6 8-10 14-8 10-7 7-1-3 4-5 2-5 3-4h2l1-4 6-9h2l2-4 1-4-5 5-10 14-7 9-4 6-3 1-1-3 4-6 10-14 11-14 12-17 11-14 10-13z" fill="#AEAFAF"/>
<path transform="translate(331,625)" d="m0 0h2l1 139 1 62 3 6 10 8 14 7 9 8 3 9 1 15-1 13-4 7-7 8h-2v2l-8 3h-6v-1l7-1 1-3 8-7 5-8 2-8v-18l-5-12-7-6-14-8-10-8-3-6-1-11-1-40v-37l1-60v-44l1-6-2-2z" fill="#7B7D7C"/>
<path transform="translate(848,948)" d="m0 0h38l2 1-1 10-3 2h-4l1 18-3 1h-22l-3-8-5-22z" fill="#7B7D7C"/>
<path transform="translate(503,368)" d="m0 0 5 1 7 8 6 1-2 1 16 16 11 14 10 12 9 12 3 5-2 2-2-1 8 11 1 3h-2l-4-6v-2l-3-1-4-6v-2l-3-1v-2l-2 1 1 4h2l2 5h2v2l-3-1-10-13v-2h-2l-5-5-14-18-12-16-10-13-3-6z" fill="#757776"/>
<path transform="translate(732,1044)" d="m0 0h7l4 2-5 5-4 6-4 13-4 19v5l7 3 8 2 1-9 6-33 2-12h5l-2 14-6 28-6 25h-2l-2 10-2 2-5-5-3-1h-11l-11 3h-21l-17-4-9-1v-1h75l-4-4-6-5-1-2v-16l7-35zm-8 55v5l10 4 4-1 1-6-7-2z" fill="#EDEDED"/>
<path transform="translate(1099,914)" d="m0 0 3 3 4 8 17-2h30v1l-18 1h-18v2h2v2l5 2 7 8 1 2v80l-3-3-8-16-13-23-7-11v-10l1-7v-25zm18 21v2l-5 1-5 4-1 6v20l8 15 11 14 5 5v-55l-4-10z" fill="#F4F4F4"/>
<path transform="translate(1008,948)" d="m0 0h31l4 8-1 19-2 4-12 1-4-3-1-5-1-2-14-2z" fill="#7B7D7C"/>
<path transform="translate(249,949)" d="m0 0h4l5 12 1 6-12 5-5 7-4 1h-21l-7-1 6-8 7-8 7-6 14-7z" fill="#7B7D7C"/>
<path transform="translate(327,1034)" d="m0 0h1v17l-1 13v31l3 7 4 4 10 3v-30l2-14 3-2h3l1-2 3 3 1 8-1 4-1-6h-2l2 6 1 17-1 19 4 2-2 2 1 6h-18l-5-3-5-2-6-1v-1h11l7 1-4-4-6-4-5-6-3-12v-17z" fill="#B2B3B3"/>
<path transform="translate(794,586)" d="m0 0 3 1v2l8 2 1 9 2 2-2 1h-54l-4-2 6-1-3-3 2-4-54-1v-1l69-1 1-1-57-1v-1z" fill="#A9AAAA"/>
<path transform="translate(905,948)" d="m0 0h32v31l-20 1-1-4-1-11-3-4-6-3-2-6z" fill="#7B7D7C"/>
<path transform="translate(116,147)" d="m0 0 4 1 12 7 8 7 4 10v390h-1l-1-58-1-331-3-9-9-8-13-8z" fill="#FEFEFE"/>
<path transform="translate(412,965)" d="m0 0h2l2 68v12l-3 16h-3l-4-12-6-21-1-3v-14l5-19 6-21zm-3 37-2 2 1 2h-2v6l-3 1v13l2 5 2 11 5 1-2-41z" fill="#F8F8F8"/>
<path transform="translate(789,83)" d="m0 0h219l9 3 9 5 9 9 1 2 1 9v24l-4 7 12 1v1h-17v-6l3-3 2-8v-17l-3-10-6-7-13-7h-228l-10 6-7 10-2 7v17l3 8 7 9 4 4-5-2-7-7-4-7-2-9v-10l3-11 6-9 6-5 7-3z" fill="#A4A6A5"/>
<path transform="translate(355,948)" d="m0 0h21l3 2 7 23v6l-7 1-16 1-8-31z" fill="#7B7D7C"/>
<path transform="translate(445,919)" d="m0 0 10 3h17v1h-10v4l7 2 3 2v2h2l2 5v11l-34-1-1-12 1-4h2v-2l6-3h2v-4h-6z" fill="#F8F8F8"/>
<path transform="translate(441,934)" d="m0 0 1 4v10h26l8 1v-7h1v21l-4-4-2 3-1 5-4 2-4 5-1 4-2-4-2-3-4-16-2-4-6 1-1 11-1 2h-2l1 20 1 5 1 21-1 27h-1l-4-82v-17z" fill="#ABACAC"/>
<path transform="translate(511,414)" d="m0 0 4 1 4 5v2h2l3 4v2h2l4 6 8 10v2h2l7 9 12 15 12 16 13 16v2h2l8 11 7 9 8 10v2h2l10 14 8 10 10 13 2 4h2l8 11 1 3h2l1 4h2l6 8 9 11 14 14 3 4-1 2-11-9-10-10-12-16-10-13-13-16-8-11-11-14-10-13-12-16-8-10-10-13-13-16-7-10-12-14-13-16-8-11-7-5-4-2z" fill="#F1F1F1"/>
<path transform="translate(126,83)" d="m0 0h219l10 3 9 6 6 9 2 6v22l-3 9-2 3 1 1 36 2v1h-25l-17-1 1-4 4-6 2-8v-16l-3-10-5-7-9-6-3-1h-228l-10 6-7 7-3 5-1 4v20l2 6 5 5 3 4-4-2-6-5-3-8-1-11 1-11 4-8 9-9 10-5z" fill="#AAABAA"/>
<path transform="translate(778,147)" d="m0 0 6 2 11 7 8 8 2 7v240l-11 8-9 5-12 7-58 29h-4l5-5 6-3 11-4 12-7 11-4 10-6 17-9 16-9 2-3 1-41 1-80v-89l-1-29-2-7-9-8-13-8z" fill="#F1F1F1"/>
<path transform="translate(801,496)" d="m0 0h1l1 15 1 1v26l1 3v50l-9-1 1-3-4-2-7-7-9-11-13-16-10-12 1-3-5-6v-5l5 5 12 17 10 14 12 14 8 8h2l1-14v-25l-1-4-1-29-1-13h3l1 1z" fill="#F7F7F7"/>
<path transform="translate(501,369)" d="m0 0h2v5l-7 8-1 2h-2l-2 4-5 8h-2l-2 4-3 5h-2l-4 8h-2l-2 4-8 11-6 8h-2l-2 4-12 17h-2l-2 4-7 10-21 28h-2l-4-12-1-5 4-5 4-4 5-12h3l4 6-1 5-5 5-7 8-2 4h2l2-4 7-7 7-8 2-3h2l2-4 8-9 11-14 12-15 8-11 10-13 10-14 7-10 4-6z" fill="#ABADAC"/>
<path transform="translate(327,450)" d="m0 0 3 2 1 8 2 1 1 5v40l-1 79-4 12h-1v-16h1v-15h-1v-28l-1-1v-30l1-9v-23z" fill="#7B7D7C"/>
<path transform="translate(536,1060)" d="m0 0 22 1 7 8h-3-2l-5 16-2 16-1 10 10-1 6-5 4-8 1 4-3 6-5 5-6 2-1 2h10l1 4h-3l-31-2 4-2 12-1-1-7 2-39h-2l-2 14-4 10-4 7h-6v-3l5-5 3-7 1-5v-11l-1-3 6-1-13-3z" fill="#F0F0F0"/>
<path transform="translate(157,948)" d="m0 0h31l-9 19-3 10-1-2-4 1-6-2-5-7-3-16z" fill="#7B7D7C"/>
<path transform="translate(1042,956)" d="m0 0 2 1v22l-3 1-2 16h-9l-1-4v-8h-2v-4l-31 1v-12l5-1h11l10 1 3 4 1 5 3 1h11l1-4z" fill="#B4B5B5"/>
<path transform="translate(243,979)" d="m0 0 4 1-6 8-6 16-3 12-2 21v18l3 27 3 17 2 1 7-2 5-5 4-9 3-17 5-30 2-28h1v35l-4 27-4 16-3 6-5 6-6 4h-17l4-2 1-1v-15l-3-23v-33l3-23 5-18 3-7z" fill="#E8E8E8"/>
<path transform="translate(749,969)" d="m0 0 2 2 9 39 4 21-3 1h-26l1-10 7-33 5-18zm0 25-5 13-5 17v6l8 1 9-1 3-2v-10l-2-10-4-8-2-1-1-5z" fill="#EBEBEB"/>
<path transform="translate(507,513)" d="m0 0 8 3 5 5 6 7 1 2v16l-2 1-16-2-3-3z" fill="#020202"/>
<path transform="translate(497,514)" d="m0 0h2v12l-1 7 5 2v9l-7 1h-12l-4-1-2-4-3-1 3-3 5-13 5-6z" fill="#030404"/>
<path transform="translate(330,969)" d="m0 0h2l8 26 7 27 2 15-2 4-3-17-4-15-3-6-2-8-1 5-3 47-3 21-1 6h-1v-10l1-13 1-36 2-35z" fill="#F0F0F0"/>
<path transform="translate(631,1088)" d="m0 0h1l1 33-3 6v3l-2 1 3 2-4 3-11-1-7-3h-10l-1-2 4-1h12l5-1v-4l-7-2-15-2-3-1-14-1v5l-4 1h-5-3l-1-3 1-5h-10l1-2 12 1h21l25 2 5 4h6l2-4zm-16 42-2 2 5-1z" fill="#DCDDDC"/>
<path transform="translate(108,926)" d="m0 0 7 2 6 7 1 3v73h-24l1-40 2-8 9-7 2-6h4l1 7-2 2-8 2-5 6-1 29-1 12 18 2v-74l-5-5z" fill="#FCFCFC"/>
<path transform="translate(543,424)" d="m0 0 4 3v2h2l8 11 5 5v-2h-2l-2-5h-2l-2-6 3 1 7 9 6 8 2 5 14 20 13 17 10 13 8 10-1 3-3 1-9-12-10-13-16-22-10-13-12-16-10-13-3-4z" fill="#D1D2D1"/>
<path transform="translate(931,980)" d="m0 0h5v70h-1l-2-28-2 5-1-2h-3l-1 4-3 3-3 8h-1l1-9 6-26z" fill="#F9F9F9"/>
<path transform="translate(527,531)" d="m0 0 3 3 1 3v16l-1 1 1 2h-2v17l1 2v13l-2 7-1 2-15 3-13 2-11-5-7-3-2-5 7 5 5 1 2-3h3v-2l5-1 1 1 2-13 2 4 3 9v3l5 1 12-1z" fill="#B1B2B1"/>
<path transform="translate(805,683)" d="m0 0h1v102l-1 34-2 9-2 4h-2l-2 4-11 7-11 6-4 4h-2l-2 5-3 7v20l4 10 6 8 7 6 3 2-4 1-9-7-9-13-2-7v-18l3-9 6-8 10-6 13-8 7-7 3-9 2-48z" fill="#A9AAA9"/>
<path transform="translate(508,369)" d="m0 0 5 2 26 12 18 11 16 8 25 14 25 13 10 5 11 7 6 5 2 4-1 4-3-5-7-6-10-6-19-10-8-4-13-7-19-10-18-10-14-8-18-8-8-3-1-3-4-2z" fill="#eee"/>
<path transform="translate(739,1044)" d="m0 0h28l3 7 6 25 4 15 1 14-8 7h-2l2-4 5-3 1-4-2-9-3-13-2-3h-8l-4 20h-1l1-18h2v-7l1-5-2-10-2-6-4-2-1 2 1-5h-16z" fill="#CECFCE"/>
<path transform="translate(806,449)" d="m0 0h1l-1 13-1 10v37l-2 3-1-1-1-12-2-1-1-1v-16l2-11 1-4-5 5-8 11-8 13-5 6v2l2 2-5-1 2-10h2l2-5 2-3h2l2-5 8-12h2v-3h2l2-5 6-9z" fill="#ECEDEC"/>
<path transform="translate(487,564)" d="m0 0 10 5 5 3-3 11-9 7-4 2-6-4-2-7v-10l5-6z" fill="#010101"/>
<path transform="translate(517,565)" d="m0 0h7l2 1 1 4v16l-2 4-2 1h-8l-7-7-1-14z" fill="#010101"/>
<path transform="translate(806,414)" d="m0 0h1v19l-2 1-1-11-7 13-5 5-7 10-4 6-9 9-2 4-7 10-16 22-3 1-1-3 4-6 10-14 11-14 12-17 11-14 10-13z" fill="#CFD0CF"/>
<path transform="translate(964,936)" d="m0 0h29l5 5 3 4v3h-38v-11z" fill="#AAABAB"/>
<path transform="translate(111,904)" d="m0 0h2v2l4 2 6 2 46 2v1l-5 1-2 2h-1l-2 8h-51l-1 2v-4l4-1 35-2 10-1-20-2-15-4-8-4z" fill="#E9EAE9"/>
<path transform="translate(1031,1018)" d="m0 0 3 2 1 23v22l-1 12-2 1h-6l-4-4-2-8 4 4h4v-34l-1-10 3-5-5-1v-1z" fill="#D7D8D7"/>
<path transform="translate(800,635)" d="m0 0 4 1 1 5v131l-2 48h-1v-144l-1-32z" fill="#ECECEC"/>
<path transform="translate(664,387)" d="m0 0h6l5 4 3 3 9 6 7 6 4 8 5 5 2 5-5-1-2-5-3-1-2-5-12-12-9-7-3-3-5 1-11 10-7 7-1 5 7-4 5-1h4v2l-11 6-5 1-3-3v-7l4-6 12-11z" fill="#F7F7F7"/>
<path transform="translate(457,1115)" d="m0 0h92v1l-14 2-32 1-6-1h-17l-5 1-1 3h-20l-10-1-1-2-14-2v-1z" fill="#D1D2D1"/>
<path transform="translate(666,389)" d="m0 0 4 1 9 8 8 7 7 7 3 7-4-1-14-13-10-8-4 1-9 8-5 5-3 2h-3v-5l6-7 8-7z" fill="#090909"/>
<path transform="translate(1077,948)" d="m0 0h10l7 6 4 7v2h2v4h-3l-3 9-6-4-11-20z" fill="#7B7D7C"/>
<path transform="translate(408,557)" d="m0 0v3l-5 12v292h-1l-1-54v-244l2-5z" fill="#DEDEDE"/>
<path transform="translate(281,954)" d="m0 0 8 2 7 8 7 7 4 6v2l-17 1-2 2-5-18-1-5z" fill="#7B7D7C"/>
<path transform="translate(666,398)" d="m0 0 2 1-1 10h5v-7l7 2 11 10-3 5h2l4 6 1 6h-4l-7-8-10-6-4-3v2l2 1h-2l-1 2-1-1-1-8z" fill="#B2B3B3"/>
<path transform="translate(503,936)" d="m0 0h31l4 5 3 3v4h-37l-1-1zm3 2v5l1 1h10v-5l-1-1zm17 1-1 4 3 1v-2l8 2 1-4-2-1z" fill="#F2F2F2"/>
<path transform="translate(414,987)" d="m0 0h1l4 95v20l-4 4h-2v-32l2-16v-25l-1-26z" fill="#A4A5A5"/>
<path transform="translate(501,369)" d="m0 0h2v5l-7 8-1 2h-2l-2 4-5 8h-2l-2 4-3 5h-2l-4 8h-2l-2 4-8 11-6 8h-2l-2 4-12 17h-2l-2 4-7 10-4-1 1-3h2l2-4 8-9 11-14 12-15 8-11 10-13 10-14 7-10 4-6z" fill="#EBEBEB"/>
<path transform="translate(682,587)" d="m0 0 109 1v1l-22 1-1 1-83 1-3-2z" fill="#D7D8D7"/>
<path transform="translate(402,229)" d="m0 0 2 1-1 20-1 199 9 3 5 4 2 8-5-5v-3l-7-2-6-5 1-213z" fill="#DBDCDB"/>
<path transform="translate(713,966)" d="m0 0 1 3v110l1 10-2 4h-2v-21l-2-22 1-22 1-43 1-17z" fill="#D7D8D7"/>
<path transform="translate(654,1025)" d="m0 0h1v76l-1 5-2-1v-54l-3 1-3-3v-4-8l1-1h7z" fill="#CECFCE"/>
<path transform="translate(243,979)" d="m0 0 4 1-6 8-6 16-3 12-2 21v18l3 27 3 21h-10l4-2 1-1v-15l-3-23v-33l3-23 5-18 3-7z" fill="#E3E4E3"/>
<path transform="translate(347,1025)" d="m0 0 2 4 9 35 5 16-1 4-2 1-3-2-2 1-2-14h2l1 2-1-10-2 1-4 1h-2l1-7v-22z" fill="#C9CBCA"/>
<path transform="translate(1069,1055)" d="m0 0h2l3 8 3 18 1 20-5 1-2-6-2-13z" fill="#B0B1B1"/>
<path transform="translate(649,450)" d="m0 0 2 1 2 4v10l-2 1-1 7 3 10 6 6h5l4-3 1-12h1l1 15-2 3-11 2-5-3-2-3-5-15-1-9 1-8 2-2-3-1 1-2z" fill="#E8E9E8"/>
<path transform="translate(1008,84)" d="m0 0 7 1 8 4 10 9 3 4 1 9v24l-4 7 12 1v1h-17v-6l3-3 2-8v-17l-3-10-6-7-16-8z" fill="#EDEDED"/>
<path transform="translate(354,1084)" d="m0 0 2 2-1 26 4 2-2 2 1 6h-18l-5-3-5-2-6-1v-1h11l10 2h3l2-10 1-11 2-11z" fill="#D7D8D7"/>
<path transform="translate(143,794)" d="m0 0h1v27l-4 10-9 8-14 8-11 7-5 6-1 4v21l2 7 3 4v2l-4-2-3-4-2-11v-14l2-8 4-5 15-10 12-7 7-6 3-5 1-4h2z" fill="#E2E3E3"/>
<path transform="translate(472,962)" d="m0 0h4v76h-1l-2-18-1-17z" fill="#FEFEFE"/>
<path transform="translate(789,454)" d="m0 0 1 3-13 16-7 11-11 14-8 8-1-3 4-5 2-5 3-4h2l1-4 6-9h2l2-4 4-7 5-1 2-2 1-4z" fill="#CECFCE"/>
<path transform="translate(1140,947)" d="m0 0 7 2 1 1v10l-6-1v78l-2-4z" fill="#A6A8A7"/>
<path transform="translate(401,526)" d="m0 0 2 2v5l-4 7-1-3 1-1-6 2-1 4-4 7-1 4-4 4-11 15h-2l-2 4-4 3h-2l2-4 10-14 21-28z" fill="#A9AAAA"/>
<path transform="translate(502,509)" d="m0 0 9 2 9 6 10 10 3 5-1 3-1-3-4-1-7-9-5-5-10-4-7 1-10 4-5 7-5 13-4 2 1-5 5-11 4-8 8-4z" fill="#F1F1F1"/>
<path transform="translate(1042,956)" d="m0 0 2 1v22l-3 1-2 16h-9l-2-16 1-1h11l1-4z" fill="#AAACAB"/>
<path transform="translate(767,1075)" d="m0 0 1 2-5 19-5 18-1 3 4-3 8-3 2-1-1 5-5 2-10 9h-1v-19l3-6h2l1-9 4-16zm-11 43 1 2z" fill="#F9FAFA"/>
<path transform="translate(346,84)" d="m0 0 7 1 10 6 6 8 3 8v22l-3 9-2 3 1 1 36 2v1h-25l-17-1 1-4 4-6 2-8v-16l-3-10-5-7-9-6-6-2z" fill="#E8E9E9"/>
<path transform="translate(361,1081)" d="m0 0 1 3h2l7 26v3h3l2-10 3-9 4 2 2 7h-6l-1 2-1 9-12 1-1-2-2-18-2-10z" fill="#E7E8E7"/>
<path transform="translate(1083,1024)" d="m0 0 3 1 12 20 6 11 9 15 11 19 4 7 7 11-1 2-10-14-12-22-16-26-10-14-3-4z" fill="#E8E8E8"/>
<path transform="translate(118,1055)" d="m0 0h4v49l-7 8-6 1 4-4 5-3z" fill="#F4F5F5"/>
<path transform="translate(543,424)" d="m0 0 4 3v2h2l8 11 5 5v-2h-2l-2-5h-2l-2-6 3 1 7 9 6 8 2 5 5 7v3h-2l-1 2-12-16-16-21-3-4z" fill="#C8C9C8"/>
<path transform="translate(691,433)" d="m0 0 4 1 3 4v9l-2 5 2 16-4-2-4-4v-26z" fill="#B0B1B1"/>
<path transform="translate(750,1045)" d="m0 0h5l-2 14-6 28-2 8h-3l1-10z" fill="#F5F5F5"/>
<path transform="translate(637,923)" d="m0 0h57v1h-54v3l6 1 5 3 3 5 1 4v71h-1v-69l-3-1-1-6-13-7-3-4z" fill="#CDCECE"/>
<path transform="translate(658,1115)" d="m0 0 58 1v2l-11 3h-21l-17-4-9-1z" fill="#CCCDCC"/>
<path transform="translate(874,1104)" d="m0 0h2l1 7h2l6 23 2 7-4-2-4-9-1-7-4-1-6-2 2-7 2-5 3 1v-2h-2z" fill="#F7F7F7"/>
<path transform="translate(511,414)" d="m0 0 4 1 4 5v2h2l3 4v2h2l4 6 8 10v2h2l7 9 10 12v2l-4-2-12-14-13-16-8-11-7-5-4-2z" fill="#eee"/>
<path transform="translate(404,1069)" d="m0 0 3 1 1 8 1 15-2 9-3 1-2-3-1-12 1-16z" fill="#B0B1B1"/>
<path transform="translate(572,942)" d="m0 0h1v136h-1l-1-83-1-4v-23z" fill="#939594"/>
<path transform="translate(543,992)" d="m0 0 3 3v38l7 7h-5v2h-6v-40z" fill="#FCFCFC"/>
<path transform="translate(310,980)" d="m0 0h13v17l-2 3-3-1v-2h-2l-5-11z" fill="#FAFAFA"/>
<path transform="translate(287,1066)" d="m0 0h1l-1 16-3 20-1 5h-1v-10l2-13-7 9-8 8-2-1 8-10 8-16z" fill="#F0F0F0"/>
<path transform="translate(98,1025)" d="m0 0h24v11h-20l-3-1zm2 3 1 4 3 1h11l3-3v-2z" fill="#FDFDFD"/>
<path transform="translate(423,470)" d="m0 0 4 2-10 14-10 13h-2l-2-7 12-13z" fill="#ADAEAE"/>
<path transform="translate(112,950)" d="m0 0h4l1 7-2 2-8 2-5 6-1 29-1 12 16 2v1h-18l1-40 2-8 9-7z" fill="#FEFEFE"/>
<path transform="translate(571,1017)" d="m0 0h1v12l-1 6-8-1-2 5-2 3-11-1v-1l9-1 2-6h2l2-9 2-4 6-1z" fill="#D8D9D8"/>
<path transform="translate(782,84)" d="m0 0 3 1-12 7-7 10-2 7v17l3 8 7 9 4 4-5-2-7-7-4-7-2-9v-10l3-11 6-9 6-5z" fill="#EEEFEF"/>
<path transform="translate(572,1097)" d="m0 0 1 4-3 6-5 5-6 2-1 2h10l1 4h-3l-31-2 4-2 12-1v-6l1 2 10-1 6-5z" fill="#F9F9F9"/>
<path transform="translate(668,387)" d="m0 0 5 2 5 5 9 6 7 6 4 8 5 5 2 5-5-1-2-5-3-1-2-5-12-12-9-7-3-3-3-2z" fill="#F4F4F4"/>
<path transform="translate(817,917)" d="m0 0 4 1 18 1 7 2h6v2l-13 1h-38l-1 2-1-3h18z" fill="#C8C9C8"/>
<path transform="translate(773,467)" d="m0 0 2 1-5 8-3 3-5 7-1 3h-2l-6 12-2 2-2 6-4-5v-2h2l2-5 5-6 9-12 8-11z" fill="#5F605F"/>
<path transform="translate(120,84)" d="m0 0h6v1l-7 2-9 6-8 9-2 6v20l2 6 5 5 3 4-4-2-6-5-3-8-1-11 1-11 4-8 9-9z" fill="#E7E8E8"/>
<path transform="translate(553,923)" d="m0 0h60v1h-55v2l7 2 6 7 1 3v11h-2l-3-12-4-7-9-3z" fill="#E1E2E1"/>
<path transform="translate(473,540)" d="m0 0 2 4 1 5h2l1 4v8l-1 7-2 3-1 8 5 12 4 4 10 6-2 1-13-7-4-5-2-5v-14l4-16-4-8z" fill="#E1E2E1"/>
<path transform="translate(122,1025)" d="m0 0h1v72h-1v-42h-3l-2-13v-5l5-1z" fill="#999A9A"/>
<path transform="translate(398,1016)" d="m0 0h1l1 12-1 18-5 6-2 3h-2l1-9 6-24z" fill="#ACADAD"/>
<path transform="translate(1150,928)" d="m0 0 2 1-5 10v9l7 1v2h-2v13l-6-3 2-1-1-10-6-3v-6l5-9 4-2z" fill="#EAEBEB"/>
<path transform="translate(471,1115)" d="m0 0h78v1l-14 2-32 1-17-2-15-1z" fill="#B5B6B5"/>
<path transform="translate(558,1114)" d="m0 0 13 1h21l15 1v1l-27 1v5l-4 1h-5-3l-1-3 1-5h-10z" fill="#D7D8D7"/>
<path transform="translate(476,547)" d="m0 0 3 1v3l8 4 1 3-4 1-5 12v18l-3-4-2-7 2-9 1-1 1-7v-12h-2z" fill="#A7A8A8"/>
<path transform="translate(666,396)" d="m0 0 5 1 5 6-4-1v7h-5v-10l-1 9-11 1 1-4z" fill="#CDCECD"/>
<path transform="translate(652,942)" d="m0 0h2v69h-2l-1-68z" fill="#FEFEFE"/>
<path transform="translate(388,979)" d="m0 0h11l-1 8-3 12-3-3v-3h-2l-2-8z" fill="#F7F7F7"/>
<path transform="translate(689,928)" d="m0 0 3 1-5 5v12l25 1 11 1 3 1-1 3-6-2-32-1-5-1v-11l4-6z" fill="#ECEDEC"/>
<path transform="translate(462,923)" d="m0 0h87l1 12-1 10 8 1 1 2-10 1-1-24-85-1z" fill="#D6D7D6"/>
<path transform="translate(327,1034)" d="m0 0h1v17l-1 13v31l3 7 4 4 10 3-2 3-6-1-8-7-3-8-1-6v-17z" fill="#C3C4C4"/>
<path transform="translate(599,940)" d="m0 0h1l1 11 1 46-2 14h-1z" fill="#A4A5A5"/>
<path transform="translate(764,473)" d="m0 0 2 1-2 5-9 12-8 11-3 1-1-3 4-6 10-14 4-5z" fill="#D6D7D6"/>
<path transform="translate(498,513)" d="m0 0h6v30h-1v-8l-6-2 1-11z" fill="#797B7A"/>
<path transform="translate(762,866)" d="m0 0h1l1 19 4 10 6 8 7 6 3 2-4 1-9-7-9-13-1-3v-20z" fill="#C2C3C2"/>
<path transform="translate(252,972)" d="m0 0h2v2h2v2l4 1-1 2h4l2 16 1 13v26h-1l-1-25-1-2-1-16-4-11-3-2-8 1v-3l3-1z" fill="#C5C6C6"/>
<path transform="translate(527,531)" d="m0 0 3 3 1 3v16l-1 1 1 2h-2v14l-1 16h-1z" fill="#A7A8A8"/>
<path transform="translate(870,1094)" d="m0 0 4 3v2h2l2 6v6l-2-3-3-8-3 6-1 7-3 7h-3l-2-6 3 1 2-11 2-7h2z" fill="#EAEAEA"/>
<path transform="translate(898,912)" d="m0 0h33v1l-27 1 15 1v1h-39l-4-2v-1z" fill="#D7D8D7"/>
<path transform="translate(156,929)" d="m0 0 4 1-2 3-1 14-1 1h-5l-1 4v-15l3-6z" fill="#F4F5F4"/>
<path transform="translate(46,1115)" d="m0 0h11l25 2 9 9-6-1-23-7-16-2z" fill="#D2D3D2"/>
<path transform="translate(667,574)" d="m0 0h5l8 10 3 6 2 1-1 5-4-1-7-11-6-8z" fill="#DDDEDD"/>
<path transform="translate(553,419)" d="m0 0 5 5 8 10 2 4-2 2-2-1 8 11 1 3h-2l-4-6v-2l-3-1-4-6-3-7-4-5 1-2-1-3z" fill="#A3A4A4"/>
<path transform="translate(689,415)" d="m0 0 4 2 5 1 2 5h-4l2 3 1 9h-2l-1 2-5-5v-2l2-1-3-7-1-3h-2l1-3z" fill="#CECFCE"/>
<path transform="translate(568,981)" d="m0 0h1l3 14v22l-1 2-6 2-4 12h-1l1-9 5-9 3-1v-19l-1-6z" fill="#FEFEFE"/>
<path transform="translate(256,967)" d="m0 0 4 1 2 7v4h-3v-2l-3-1v-2h-2v-2l-6 5-1 2h-5l3-6 8-5z" fill="#ACADAD"/>
<path transform="translate(820,912)" d="m0 0h51v1l-28 1 4 2h-29z" fill="#D7D8D7"/>
<path transform="translate(143,767)" d="m0 0h1v27l-1 22-1 6h-2l1-44 1-1z" fill="#ECEDEC"/>
<path transform="translate(767,1075)" d="m0 0 1 2-5 19-5 18-2 1 1-9 6-28 1-2z" fill="#FEFEFE"/>
<path transform="translate(401,402)" d="m0 0h1v47l9 3 5 4 2 8-5-5v-3l-7-2-6-5v-23z" fill="#E9EAE9"/>
<path transform="translate(803,472)" d="m0 0h1l1 18v19l-2 3-1-1-1-12-2-1-1-1v-6h2l2-4z" fill="#C4C5C4"/>
<path transform="translate(346,84)" d="m0 0 7 1 10 6 6 8 3 8v17l-2 1-1-15-3-10-5-7-9-6-6-2z" fill="#E9E9E9"/>
<path transform="translate(183,1085)" d="m0 0h3l3 5v2h2l1 4h2l7 8 2 1v2l4 1v2l3 1 3 4-1 2-8-8-10-8-9-8-3-3z" fill="#ECECEC"/>
<path transform="translate(1155,968)" d="m0 0h1l1 7v85l-3-1v-2h2z" fill="#D7D8D7"/>
<path transform="translate(563,438)" d="m0 0h4 2l13 18-3 2-3-3-2 1v-2l-2-1-3-6-6-8z" fill="#B3B4B4"/>
<path transform="translate(501,369)" d="m0 0h2v5l-7 8-1 2h-2l-2 4-5 8h-2l-1 3-2-2 14-20 4-6z" fill="#F2F2F2"/>
<path transform="translate(713,1131)" d="m0 0 6 4h6l6-2-3 5-3 1h-16l-3-1v-5h7z" fill="#D8D9D8"/>
<path transform="translate(108,1113)" d="m0 0 1 2h26l13 1 1 4-14-2h-31l1-3z" fill="#DEDEDE"/>
<path transform="translate(536,968)" d="m0 0h25l3 3h-26v18l3 3h-5z" fill="#FDFDFD"/>
<path transform="translate(504,550)" d="m0 0 2 4 1 4v7h-2l-1 2-2-3v-5l-8-1-1-2 3-3h7z" fill="#B0B1B1"/>
<path transform="translate(759,1010)" d="m0 0 2 4 3 17-3 1h-23v-1l18-2 2-1v-14z" fill="#DCDCDC"/>
<path transform="translate(806,414)" d="m0 0h1v19l-2 1-1-11-7 13-3-2v-3l9-12z" fill="#C7C9C8"/>
<path transform="translate(681,411)" d="m0 0 5 5 1 3h2l4 6 1 6h-4l-7-8-3-3h2z" fill="#ACADAD"/>
<path transform="translate(82,1138)" d="m0 0 5 1-1 2 13 1 2 2h-42v-2h15l-3-2z" fill="#DADBDA"/>
<path transform="translate(800,635)" d="m0 0 4 1 1 6-1 35-2-1-1-32z" fill="#FDFDFD"/>
<path transform="translate(1108,1064)" d="m0 0 4 5 16 28 7 11-1 2-10-14-12-22-4-6z" fill="#D7D7D7"/>
<path transform="translate(613,924)" d="m0 0h5l-1 3-13 9-1 2v8l4 2h-7v-12l6-7z" fill="#E6E7E7"/>
<path transform="translate(243,979)" d="m0 0 4 1-6 8-6 16-2 3v-9l5-15 3-3z" fill="#F6F6F6"/>
<path transform="translate(543,424)" d="m0 0 4 3v2h2l8 11 3 4 4 1v2h2v2h2v4h-2l-1 2-15-20-7-9z" fill="#A9AAA9"/>
<path transform="translate(201,980)" d="m0 0h9l-3 9-2 3-5 1v-11z" fill="#F7F7F7"/>
<path transform="translate(936,1097)" d="m0 0 1 4-2 5-5 5-6 3 32 1v1l-35 1v-3l11-9z" fill="#CBCCCC"/>
<path transform="translate(143,794)" d="m0 0h1v27l-4 10-9 8-6 3 2-4 8-6 4-6 1-4h2z" fill="#C3C3C3"/>
<path transform="translate(790,418)" d="m0 0 1 3-6 3-12 7-8 4-9 5h-2v-2l14-8 15-8z" fill="#E7E7E7"/>
<path transform="translate(793,433)" d="m0 0 2 1v3l-9 12-5 8-3 1 2-4 3-4v-5l9-11z" fill="#CACBCA"/>
<path transform="translate(358,1067)" d="m0 0 2 4 3 9-1 4-2 1-3-2-2 1-2-14h2l1 1z" fill="#CCCDCC"/>
<path transform="translate(439,938)" d="m0 0h1l2 12v13l-1 1-1 9h-1l-1-17v-17z" fill="#7B7D7C"/>
<path transform="translate(772,1075)" d="m0 0 4 1 4 15 1 14-8 7h-2l2-4 5-3 1-4-2-9-3-13z" fill="#D4D5D5"/>
<path transform="translate(838,1121)" d="m0 0 1 3h2l2 5 12 7 4 1-2 4-3 1-5-5-6-4-5-6-2-1 1-4z" fill="#F5F5F5"/>
<path transform="translate(682,587)" d="m0 0h11l11 1v2l-9 2h-10l-3-2z" fill="#C0C1C0"/>
<path transform="translate(502,512)" d="m0 0 5 1v21l-1 1v9l-2 3v-34z" fill="#A9AAAA"/>
<path transform="translate(649,450)" d="m0 0 2 1 2 4-1 6-3 4h-2v8h-1l-1-9 1-8 2-2-3-1 1-2z" fill="#A0A2A1"/>
<path transform="translate(827,1030)" d="m0 0h4v2h2l1 12-3 2-4-1 1-2z" fill="#FEFEFE"/>
<path transform="translate(1041,979)" d="m0 0h3v8h-1l-1 10-9 1-4-1-1-4v-9h1l1 12h9v-9l1-7z" fill="#D5D6D5"/>
<path transform="translate(423,470)" d="m0 0 4 2-10 14-3-3 1-4z" fill="#A8A9A8"/>
<path transform="translate(481,398)" d="m0 0 1 2-3 5h-2l-4 8h-2l-2 4-8 11h-3l6-9 12-15z" fill="#ECEDEC"/>
<path transform="translate(116,147)" d="m0 0 4 1 12 7 8 7 4 10v6h-2l-3-13-7-7-16-10z" fill="#E1E2E2"/>
<path transform="translate(1141,947)" d="m0 0 6 2 1 1v10l-7-2z" fill="#B0B1B1"/>
<path transform="translate(754,517)" d="m0 0 3 1v2l3-1 6 7-3 6h-2l-2-5v-5l-5 3-4-5 6 1v-2h-2z" fill="#FEFEFE"/>
<path transform="translate(671,590)" d="m0 0 6 5v-2l4 2h3l2-2-1 8-4-1v2l-5-2-2-4-2-1z" fill="#B5B6B6"/>
<path transform="translate(691,433)" d="m0 0h2l2 7-1 16h-1l-1-6-1 12h-1v-26z" fill="#7B7D7C"/>
<path transform="translate(502,398)" d="m0 0h2l6 11-2 1v-3l-8-2h-4l-6 4 2-4 5-5 4 1z" fill="#989A99"/>
<path transform="translate(1045,1116)" d="m0 0h22l1 2-2 4-12-3-9-1z" fill="#FBFBFB"/>
<path transform="translate(908,1089)" d="m0 0h1l-1 11-5 20-3 7-1-4 4-16h2v-8l2-6z" fill="#E9EAE9"/>
<path transform="translate(1120,1023)" d="m0 0 4 5 7 6 1 7 1 5h-2l-11-20z" fill="#C0C1C0"/>
<path transform="translate(1142,947)" d="m0 0 8 1 4 1v2h-2v13l-6-3 2-1-1-10-5-2z" fill="#D7D8D7"/>
<path transform="translate(68,943)" d="m0 0 3 2 39 2v2l-42-1z" fill="#FEFEFE"/>
<path transform="translate(666,396)" d="m0 0 5 1 5 6-4-1v7h-5v-10l-2-2z" fill="#D3D4D4"/>
<path transform="translate(264,1009)" d="m0 0h1v35l-3 1 1-25z" fill="#F2F2F2"/>
<path transform="translate(540,993)" d="m0 0h2v49h-1l-1-40-2 1 1-9z" fill="#ADAEAE"/>
<path transform="translate(769,850)" d="m0 0h2v3h-2l-2 5-4 8-1 3-1 16h-1v-18l3-9z" fill="#E8E9E9"/>
<path transform="translate(541,589)" d="m0 0 2 3v14l-1 1h-14l-2-1v-2l15 1z" fill="#FEFEFE"/>
<path transform="translate(577,463)" d="m0 0 4 5 6 8 1 4h-2l-1-2h-3l-4-6-3-4v-3h2z" fill="#BEBFBE"/>
<path transform="translate(779,457)" d="m0 0h5v5l-4 4-4-1v2l-4 1-1-3 4-2z" fill="#AAACAB"/>
<path transform="translate(762,114)" d="m0 0h1l2 16 4 7 5 6 4 4-5-2-7-7-4-7-1-7z" fill="#E3E4E4"/>
<path transform="translate(558,1114)" d="m0 0 13 1h21l15 1v1l-34 1-3-1-12-1z" fill="#A7A8A8"/>
<path transform="translate(784,491)" d="m0 0 5 1 3 3v5l-6-1-4 5 1-7v-5z" fill="#FEFEFE"/>
<path transform="translate(444,1026)" d="m0 0 2 3 1 16-2 6h-1l-1-6v-18z" fill="#B3B4B4"/>
<path transform="translate(264,1102)" d="m0 0 2 1-9 8-13 6h-3v-3l13-5 9-6z" fill="#E1E1E1"/>
<path transform="translate(124,840)" d="m0 0 1 3-15 8-8 7-2 6-2-4 3-5 13-9z" fill="#D5D5D5"/>
<path transform="translate(517,1119)" d="m0 0 13 2v3l-13-2-2 2-3-1-6 1v-3z" fill="#D7D8D7"/>
<path transform="translate(106,948)" d="m0 0 4 1 2 5-4 5-5 2 2-5z" fill="#D7D8D7"/>
<path transform="translate(703,1106)" d="m0 0h2l-2 4-4 3-8-1 2-4z" fill="#C4C5C4"/>
<path transform="translate(485,454)" d="m0 0v3l-10 14-10 12v-3l10-13z" fill="#FEFEFE"/>
<path transform="translate(437,455)" d="m0 0 1 2-7 10-3 4-4-1 1-3h2l2-4z" fill="#eee"/>
<path transform="translate(342,1013)" d="m0 0 3 1 3 16 1 7-2 4-3-17z" fill="#EEEFEE"/>
<path transform="translate(547,923)" d="m0 0h2l1 12-1 10 8 1 1 2-10 1z" fill="#FDFDFD"/>
<path transform="translate(773,467)" d="m0 0 2 1-5 8-3 3-3 4h-3l2-4 8-11z" fill="#686A69"/>
<path transform="translate(652,458)" d="m0 0h1v7l-2 1-1 13-1 3-2-6v-11h2l2-4z" fill="#C7C8C8"/>
<path transform="translate(97,116)" d="m0 0h1l3 15 1 3 5 5 3 4-4-2-6-5-3-8-1-11z" fill="#ECECEC"/>
<path transform="translate(940,913)" d="m0 0h10v2l-9 1h-19v-2z" fill="#D7D8D7"/>
<path transform="translate(607,507)" d="m0 0 5 2 5 6-1 3-3 1-6-8z" fill="#CDCECD"/>
<path transform="translate(516,380)" d="m0 0 14 14-1 2-4-3-7-6-5-6z" fill="#2F2F2F"/>
<path transform="translate(304,912)" d="m0 0h18l-1 3h-17z" fill="#C3C4C4"/>
<path transform="translate(81,924)" d="m0 0h5l-4 4-9 6-5 3 2-4 3-3h2v-2z" fill="#EBECEC"/>
<path transform="translate(663,463)" d="m0 0 3 1v3h2l1 6v13l-2-2-2-13z" fill="#FEFEFE"/>
<path transform="translate(568,454)" d="m0 0 4 1 5 7v3h-2l-1 2-4-6v-2z" fill="#B5B6B6"/>
<path transform="translate(818,944)" d="m0 0 2 3 1 6h-2l2 11h-2l-3-9v-6z" fill="#ABACAB"/>
<path transform="translate(757,492)" d="m0 0 3 1 1 3-10 10-1-3 4-5 2-5z" fill="#B6B7B6"/>
<path transform="translate(156,929)" d="m0 0 4 1-2 3-1 14-4 1 2-1v-15l-3 2 2-4z" fill="#D2D3D2"/>
<path transform="translate(749,491)" d="m0 0h3l1 3-6 8-3 1-1-3 4-6z" fill="#B5B6B5"/>
<path transform="translate(760,483)" d="m0 0h3l-2 6h-2l-2 4-5 4v-3z" fill="#363636"/>
<path transform="translate(726,451)" d="m0 0m-4 1h4v2l-11 6h-4l5-5z" fill="#F6F6F6"/>
<path transform="translate(562,434)" d="m0 0 1 2 5 1-2 3-2-1 8 11 1 3h-2l-4-6v-2l-3-1-4-6v-2h2z" fill="#737473"/>
<path transform="translate(679,585)" d="m0 0 3 2 1 3 2 1-1 5-4-1-4-7 3-1z" fill="#FBFBFB"/>
<path transform="translate(232,1091)" d="m0 0h2l2 10v2h-10l4-2 1-1z" fill="#D9DAD9"/>
<path transform="translate(666,398)" d="m0 0 2 1-1 10 7 1-4 2 1 2h-2v2l2 1h-2l-1 2-1-1-1-8z" fill="#969897"/>
<path transform="translate(330,969)" d="m0 0h2l3 11-3-1-1 17h-1z" fill="#AFB0AF"/>
<path transform="translate(401,526)" d="m0 0 2 2v5l-4 7-1-3 1-1-3-2 3-6z" fill="#A9ABAA"/>
<path transform="translate(700,1100)" d="m0 0h2v5l-1 1h-11l-1-3h3v-2zm-2 2-5 1v2h6l1-3z" fill="#D7D8D7"/>
<path transform="translate(583,477)" d="m0 0 3 1v2l3-1 5 7-4 2-7-9z" fill="#D5D6D5"/>
<path transform="translate(681,411)" d="m0 0 5 5 2 4h-2v3l-4-1-2-2h2z" fill="#818382"/>
<path transform="translate(885,978)" d="m0 0h1v8l-1 5h-2v-6l-2-1-1-4z" fill="#CACBCA"/>
<path transform="translate(819,953)" d="m0 0 3 1 2 7v5h-3l-2-7z" fill="#D5D6D5"/>
<path transform="translate(804,591)" d="m0 0h1l1 9 2 2-2 1h-17v-1l9-1v-1l5-1z" fill="#7E807F"/>
<path transform="translate(473,540)" d="m0 0 2 4 1 5h2l1 4v8l-3 2 1-8-4-8z" fill="#E5E6E5"/>
<path transform="translate(396,532)" d="m0 0 4 1-3 1-1 4h-3l-1 4-5 5-2 1 2-4 8-11z" fill="#9D9E9E"/>
<path transform="translate(379,1094)" d="m0 0 4 2 2 7-7-1z" fill="#F1F2F2"/>
<path transform="translate(1121,1090)" d="m0 0h3l4 7 7 11-1 2-10-14z" fill="#E0E1E0"/>
<path transform="translate(285,1084)" d="m0 0h1l-1 13-2 10h-1v-10l2-11z" fill="#FEFEFE"/>
<path transform="translate(781,520)" d="m0 0 1 3-5 8-5 2 2-5z" fill="#FDFDFD"/>
<path transform="translate(669,474)" d="m0 0h1l1 15-2 3-9 1v-2l7-2 1-3z" fill="#B5B7B6"/>
<path transform="translate(504,1028)" d="m0 0h25l5 5-5-1-2-1v-2h-23z" fill="#A2A4A3"/>
<path transform="translate(447,504)" d="m0 0v3l-9 12-5 6-1-3 5-5 6-8 2-4z" fill="#F8F8F8"/>
<path transform="translate(763,483)" d="m0 0 2 3-1 6-4 3v-2h-2l1-4h2l1-4z" fill="#C7C8C8"/>
<path transform="translate(757,483)" d="m0 0 2 3-4 5-1 2-4-1 2-5 2-3z" fill="#CCCDCD"/>
<path transform="translate(782,1115)" d="m0 0h14l8 2-1 3-12-3-9-1z" fill="#DADBDB"/>
<path transform="translate(324,1115)" d="m0 0h11l5 2 1 5-8-4-9-2z" fill="#DDDEDD"/>
<path transform="translate(647,1108)" d="m0 0 3 1-3 3-5 1v2l-5 2-2 1 2-5z" fill="#E7E8E8"/>
<path transform="translate(712,1079)" d="m0 0h2l1 10-2 4h-2v-9z" fill="#D3D4D3"/>
<path transform="translate(549,994)" d="m0 0h3l-1 7-2 6-2-2v-8z" fill="#FEFEFE"/>
<path transform="translate(475,588)" d="m0 0 5 3 4 4 10 6-2 1-13-7-4-5z" fill="#FDFDFD"/>
<path transform="translate(543,424)" d="m0 0 4 3v2h2l8 11v3l-5-5-9-12z" fill="#A2A3A3"/>
<path transform="translate(1141,1112)" d="m0 0 2 1 1 3 4 2 3 5 2 5-5-5-8-7z" fill="#F1F1F1"/>
<path transform="translate(532,1099)" d="m0 0 7 1-2 2-3 1h-15l-1-2h9z" fill="#D7D8D8"/>
<path transform="translate(1037,1096)" d="m0 0h5l-1 5h-3l-4 3-2-2 3-5z" fill="#B0B1B0"/>
<path transform="translate(412,965)" d="m0 0h2v13l-4-2 1-8z" fill="#919292"/>
<path transform="translate(108,926)" d="m0 0 7 2 6 7v3h-2l-4-6-7-5z" fill="#DCDDDC"/>
<path transform="translate(698,428)" d="m0 0 2 3 2 6v7l-4-5-1-4 1-1z" fill="#FCFCFC"/>
<path transform="translate(567,1072)" d="m0 0 5 4 2 5v15h-1l-1-13-5-9z" fill="#C3C4C3"/>
<path transform="translate(651,1025)" d="m0 0h3v11l-8 1 1-3 4-1z" fill="#FEFEFE"/>
<path transform="translate(782,446)" d="m0 0 2 4-6 8-4 1 2-4z" fill="#BDBEBE"/>
<path transform="translate(602,1129)" d="m0 0h10l1 3h-14l-1-2z" fill="#DEDFDE"/>
<path transform="translate(246,1097)" d="m0 0h2l-2 4-3 2h-7l-1-4 3 1 7-2z" fill="#F0F0F0"/>
<path transform="translate(995,981)" d="m0 0h1l1 10 6 1v9h-1v-8h-3l-1 4-3-4z" fill="#D1D2D1"/>
<path transform="translate(490,386)" d="m0 0 1 2-5 8h-2l-1 3-2-2 6-8z" fill="#F0F0F0"/>
<path transform="translate(729,1133)" d="m0 0 2 1-5 5-8-2-2-3 9 1z" fill="#FEFEFE"/>
<path transform="translate(943,1116)" d="m0 0h19v5l-1-2-18-2z" fill="#F7F7F7"/>
<path transform="translate(572,1097)" d="m0 0 1 4-3 6-5 5h-2l2-4 6-8z" fill="#DCDDDD"/>
<path transform="translate(908,1089)" d="m0 0h1l-1 11-3 11-1-4 1-8 2-6z" fill="#FAFAFA"/>
<path transform="translate(872,1088)" d="m0 0 2 3 1 8-4-4-2 2v-6z" fill="#CDCECD"/>
<path transform="translate(553,424)" d="m0 0 6 3 3 5v4h-2l-4-6-3-4z" fill="#929393"/>
<path transform="translate(425,149)" d="m0 0 5 1 8 6 4 4-1 2-8-7-8-5z" fill="#EDEEED"/>
<path transform="translate(757,1101)" d="m0 0h1l-1 9-2 9h-1v-12z" fill="#D7D8D7"/>
<path transform="translate(504,1007)" d="m0 0 3 2 2-2 1 5v3h-6z" fill="#D7D8D7"/>
<path transform="translate(391,993)" d="m0 0 2 3 1 2 2-5 1 3-2 8-3-1-1-3z" fill="#C1C2C1"/>
<path transform="translate(496,603)" d="m0 0 8 1 9-1-2 4-4-1-4 1-7-3z" fill="#FEFEFE"/>
<path transform="translate(616,517)" d="m0 0 4 2 2 5-3-1-1 2-4-5v-2z" fill="#D3D3D3"/>
<path transform="translate(329,436)" d="m0 0 3 3 7 9 1 4-5-5-6-8z" fill="#9FA1A0"/>
<path transform="translate(806,414)" d="m0 0h1v19h-1v-12l-3 1 1-6z" fill="#AFB0B0"/>
<path transform="translate(408,557)" d="m0 0v3l-5 12h-1v-8l1-3z" fill="#F6F6F6"/>
<path transform="translate(591,487)" d="m0 0 5 1 2 3-1 4v-2l-3 1-3-4z" fill="#BFC0C0"/>
<path transform="translate(577,463)" d="m0 0 4 5v6l-5-5-1-4h2z" fill="#D4D5D5"/>
<path transform="translate(802,420)" d="m0 0 2 3-3 3-1-3zm2 1h2v13h-1zm-4 5 1 3-3 1z" fill="#C5C6C5"/>
<path transform="translate(673,403)" d="m0 0 6 1 3 4-1 2-4-2-4-3z" fill="#909190"/>
<path transform="translate(290,1048)" d="m0 0h2l-1 10-2 6h-1l1-11z" fill="#C0C1C0"/>
<path transform="translate(199,985)" d="m0 0h1l1 7h3l-1 4-4 3z" fill="#CBCCCB"/>
<path transform="translate(723,952)" d="m0 0h4v3l-6 4-2 3h-2l2-5z" fill="#D9DAD9"/>
<path transform="translate(650,458)" d="m0 0v3l-2 4-1 8h-1l-1-9 1-5z" fill="#7C7E7D"/>
<path transform="translate(838,1121)" d="m0 0 1 3h2l2 5 2 4h-2l-5-6-2-1 1-4z" fill="#DDDEDD"/>
<path transform="translate(658,1115)" d="m0 0h10l11 2 1 3-13-3-9-1z" fill="#D7D7D7"/>
<path transform="translate(389,1055)" d="m0 0 2 3-1 8-2 1-2 3 1-8z" fill="#A3A4A4"/>
<path transform="translate(317,997)" d="m0 0 1 2h3l2-2-1 9-5-5z" fill="#D0D1D0"/>
<path transform="translate(334,586)" d="m0 0h2l-1 5-6 8-1-2 2-5 2-1z" fill="#C3C4C3"/>
<path transform="translate(554,432)" d="m0 0 3 1 6 8-1 2h-2l-2-5h-2z" fill="#AAABAB"/>
<path transform="translate(497,400)" d="m0 0h2l1 5h-4l-6 4 2-4z" fill="#B1B2B2"/>
<path transform="translate(37,1105)" d="m0 0 2 1-2 3h-2v2l-7 3 1-3z" fill="#D7D7D7"/>
<path transform="translate(340,608)" d="m0 0 1 2-2 5h-2v2l-3 1 1-5z" fill="#C3C4C3"/>
<path transform="translate(517,379)" d="m0 0h2l5 5 3 4-2 1-5-4-3-4z" fill="#989999"/>
<path transform="translate(99,105)" d="m0 0 1 3-1 15h-1l-1-7v-9z" fill="#BDBEBD"/>
<path transform="translate(68,1025)" d="m0 0h5l1 5h-4l-2-2z" fill="#D7D8D7"/>
<path transform="translate(1069,999)" d="m0 0 4 5-2 1 1 5h-2v-4h-2v-6z" fill="#B8B9B8"/>
<path transform="translate(99,885)" d="m0 0h1l2 7 3 4v2l-4-2-3-4z" fill="#D7D7D7"/>
<path transform="translate(754,517)" d="m0 0 3 1v2l2 1-5 4-4-5 6 1v-2h-2z" fill="#FBFBFB"/>
<path transform="translate(767,467)" d="m0 0h2l1 3-4 5-3-1 2-4z" fill="#C4C5C4"/>
<path transform="translate(413,461)" d="m0 0 2 1v7l-5 2z" fill="#7B7D7C"/>
<path transform="translate(443,447)" d="m0 0 2 1-6 9-2-3z" fill="#E2E2E2"/>
<path transform="translate(783,446)" d="m0 0h4l-2 5-4 6-3 1 2-4 3-4z" fill="#D1D2D1"/>
<path transform="translate(371,124)" d="m0 0h1l-1 10-4 2 2-10z" fill="#DEDFDF"/>
<path transform="translate(457,1103)" d="m0 0h8l1 3h-10z" fill="#D7D8D7"/>
<path transform="translate(631,1031)" d="m0 0 1 2 9 1 1 2h-10z" fill="#FEFEFE"/>
<path transform="translate(602,936)" d="m0 0 1 2v8l4 2h-7v-8z" fill="#FEFEFE"/>
<path transform="translate(478,531)" d="m0 0h2l-1 5-4 4-1-3z" fill="#D4D5D4"/>
<path transform="translate(764,432)" d="m0 0m-2 1h2v3l-8 4h-2v-2z" fill="#DEDFDE"/>
<path transform="translate(683,410)" d="m0 0 5 2 2 3-2 2-3-1-2-3z" fill="#B9BABA"/>
<path transform="translate(1170,1133)" d="m0 0h1v11h-5l2-5h2z" fill="#D7D8D7"/>
<path transform="translate(1060,1107)" d="m0 0 8 1-1 4-6-2z" fill="#F1F1F1"/>
<path transform="translate(1101,1052)" d="m0 0 4 5 3 5-1 4-6-10z" fill="#DFE0E0"/>
<path transform="translate(540,993)" d="m0 0h2v8l-4 2 1-9z" fill="#7B7D7C"/>
<path transform="translate(553,923)" d="m0 0h9l-4 1 1 4-5-1z" fill="#FBFBFB"/>
<path transform="translate(362,430)" d="m0 0 5 1 1 3-2 2-6-3 2-1z" fill="#7D7F7E"/>
<path transform="translate(551,982)" d="m0 0h1v8l-2 3-1-5z" fill="#FEFEFE"/>
<path transform="translate(385,1115)" d="m0 0 2 1 2 7-3-1z" fill="#FEFEFE"/>
<path transform="translate(761,1138)" d="m0 0 4 2v2l-5-1z" fill="#F4F4F4"/>
<path transform="translate(518,1082)" d="m0 0h2l1 7-3-4z" fill="#D7D8D7"/>
<path transform="translate(632,1133)" d="m0 0 6 2-3 1-3-1z" fill="#FEFEFE"/>
<path transform="translate(519,1090)" d="m0 0 2 1-2 3h-2v-3z" fill="#D7D8D7"/>
<path transform="translate(532,1121)" d="m0 0 1 3h-2z" fill="#D7D8D7"/>
<path transform="translate(523,1083)" d="m0 0 3 3-3-1z" fill="#D7D8D7"/>
<path transform="translate(611,1135)" d="m0 0 4 1z" fill="#D7D8D7"/>
<path transform="translate(443,1135)" d="m0 0 4 1z" fill="#FEFEFE"/>
<path transform="translate(607,1134)" d="m0 0 3 1h-3z" fill="#D7D8D7"/>
<path transform="translate(1062,999)" d="m0 0h2v2h-2z" fill="#FEFEFE"/>
<path transform="translate(563,943)" d="m0 0 3 1h-3z" fill="#FEFEFE"/>
<path transform="translate(476,1135)" d="m0 0 3 1z" fill="#FEFEFE"/>
<path transform="translate(477,1119)" d="m0 0 2 1-2 1z" fill="#FEFEFE"/>
<path transform="translate(508,1079)" d="m0 0 2 2h-2z" fill="#D7D8D7"/>
<path transform="translate(55,1142)" d="m0 0 2 1z" fill="#FEFEFE"/>
<path transform="translate(448,1135)" d="m0 0 2 1z" fill="#FEFEFE"/>
<path transform="translate(557,1132)" d="m0 0" fill="#FEFEFE"/>
<path transform="translate(504,1131)" d="m0 0 2 1z" fill="#EAEBEA"/>
<path transform="translate(634,1114)" d="m0 0" fill="#FEFEFE"/>
<path transform="translate(533,1070)" d="m0 0" fill="#D7D8D7"/>
<path transform="translate(560,942)" d="m0 0 2 1z" fill="#FEFEFE"/>
<path transform="translate(541,586)" d="m0 0" fill="#FEFEFE"/>
<path transform="translate(659,460)" d="m0 0" fill="#FEFEFE"/>
<path transform="translate(618,1142)" d="m0 0" fill="#D7D8D7"/>
<path transform="translate(368,1141)" d="m0 0" fill="#FEFEFE"/>
<path transform="translate(638,1136)" d="m0 0" fill="#FEFEFE"/>
<path transform="translate(557,1135)" d="m0 0" fill="#FEFEFE"/>
<path transform="translate(471,1135)" d="m0 0" fill="#FEFEFE"/>
<path transform="translate(507,1132)" d="m0 0" fill="#D7D8D7"/>
<path transform="translate(500,1120)" d="m0 0" fill="#FEFEFE"/>
<path transform="translate(730,1078)" d="m0 0" fill="#FEFEFE"/>
<path transform="translate(729,1077)" d="m0 0" fill="#FEFEFE"/>
<path transform="translate(540,1066)" d="m0 0" fill="#FEFEFE"/>
<path transform="translate(1085,1043)" d="m0 0" fill="#FEFEFE"/>
<path transform="translate(1061 1e3)" d="m0 0" fill="#FEFEFE"/>
<path transform="translate(619,925)" d="m0 0" fill="#FEFEFE"/>
<path transform="translate(541,582)" d="m0 0" fill="#FEFEFE"/>
<path transform="translate(539,561)" d="m0 0" fill="#FEFEFE"/>
<path transform="translate(728,495)" d="m0 0" fill="#FEFEFE"/>
<path transform="translate(794,492)" d="m0 0" fill="#FEFEFE"/>
<path transform="translate(457,463)" d="m0 0" fill="#D7D8D7"/>
<path transform="translate(660,462)" d="m0 0" fill="#FEFEFE"/>
</svg>
